<svg width="578" height="343" viewBox="0 0 578 343" fill="none" xmlns="http://www.w3.org/2000/svg">
<rect width="578" height="343" rx="17" fill="white"/>
<path d="M144.628 332.398C142.592 332.398 140.793 332.047 139.23 331.347C137.677 330.646 136.46 329.68 135.58 328.449C134.699 327.218 134.263 325.816 134.273 324.244C134.263 323.013 134.514 321.882 135.026 320.849C135.546 319.808 136.252 318.941 137.142 318.25C138.032 317.549 139.027 317.104 140.125 316.915V316.744C138.676 316.394 137.516 315.617 136.645 314.415C135.774 313.212 135.343 311.83 135.352 310.267C135.343 308.78 135.736 307.455 136.531 306.29C137.336 305.116 138.439 304.192 139.841 303.52C141.242 302.848 142.838 302.511 144.628 302.511C146.399 302.511 147.98 302.852 149.372 303.534C150.774 304.206 151.877 305.13 152.682 306.304C153.487 307.469 153.894 308.79 153.903 310.267C153.894 311.83 153.449 313.212 152.568 314.415C151.688 315.617 150.542 316.394 149.131 316.744V316.915C150.22 317.104 151.2 317.549 152.071 318.25C152.952 318.941 153.652 319.808 154.173 320.849C154.704 321.882 154.973 323.013 154.983 324.244C154.973 325.816 154.528 327.218 153.648 328.449C152.767 329.68 151.545 330.646 149.983 331.347C148.43 332.047 146.645 332.398 144.628 332.398ZM144.628 328.804C145.83 328.804 146.872 328.605 147.753 328.207C148.634 327.8 149.315 327.237 149.798 326.517C150.281 325.788 150.527 324.936 150.537 323.96C150.527 322.947 150.262 322.052 149.741 321.276C149.23 320.499 148.534 319.888 147.653 319.443C146.773 318.998 145.764 318.776 144.628 318.776C143.482 318.776 142.464 318.998 141.574 319.443C140.684 319.888 139.983 320.499 139.472 321.276C138.96 322.052 138.709 322.947 138.719 323.96C138.709 324.936 138.941 325.788 139.415 326.517C139.898 327.237 140.584 327.8 141.474 328.207C142.365 328.605 143.416 328.804 144.628 328.804ZM144.628 315.267C145.594 315.267 146.451 315.073 147.199 314.685C147.947 314.296 148.534 313.757 148.96 313.065C149.396 312.374 149.618 311.564 149.628 310.636C149.618 309.727 149.401 308.932 148.974 308.25C148.558 307.568 147.975 307.043 147.227 306.673C146.479 306.295 145.613 306.105 144.628 306.105C143.624 306.105 142.743 306.295 141.986 306.673C141.238 307.043 140.655 307.568 140.239 308.25C139.822 308.932 139.618 309.727 139.628 310.636C139.618 311.564 139.827 312.374 140.253 313.065C140.679 313.757 141.266 314.296 142.014 314.685C142.772 315.073 143.643 315.267 144.628 315.267Z" fill="black"/>
<path d="M0 23H578V285H0V23Z" fill="#EDC18D"/>
<line x1="95.4258" y1="23" x2="95.4258" y2="285" stroke="#7A7474" stroke-width="8"/>
<line x1="192.51" y1="23" x2="192.51" y2="285" stroke="#7A7474" stroke-width="8"/>
<line x1="483.761" y1="23" x2="483.761" y2="285" stroke="#7A7474" stroke-width="8"/>
<line x1="386.677" y1="23" x2="386.677" y2="285" stroke="#7A7474" stroke-width="8"/>
<line x1="289.594" y1="23" x2="289.593" y2="285" stroke="#7A7474" stroke-width="8"/>
<circle cx="45.7548" cy="153.755" r="15.7548" fill="#CFC3BA"/>
<circle cx="239.923" cy="153.755" r="15.7548" fill="#CFC3BA"/>
<circle cx="531.755" cy="92.7548" r="15.7548" fill="#CFC3BA"/>
<circle cx="531.755" cy="218.755" r="15.7548" fill="#CFC3BA"/>
<line x1="2.62268e-07" y1="272" x2="578" y2="272" stroke="white" stroke-width="6"/>
<line x1="2.18557e-07" y1="224.5" x2="578" y2="224.5" stroke="white" stroke-width="5"/>
<line x1="1.74846e-07" y1="177" x2="578" y2="177" stroke="white" stroke-width="4"/>
<line x1="1.31134e-07" y1="129.5" x2="578" y2="129.5" stroke="white" stroke-width="3"/>
<line x1="8.74228e-08" y1="82" x2="578" y2="82.0001" stroke="white" stroke-width="2"/>
<line x1="1" y1="34.5" x2="577" y2="34.5" stroke="white"/>
<circle cx="144.5" cy="271.5" r="17.5" fill="#1870D8"/>
<path d="M148.697 261.182V283H143.435V266.104H143.307L138.428 269.087V264.527L143.808 261.182H148.697Z" fill="white"/>
<circle cx="338.5" cy="271.5" r="17.5" fill="black"/>
<path d="M330.609 282V278.207L338.567 271.24C339.163 270.7 339.671 270.207 340.09 269.759C340.509 269.305 340.829 268.85 341.049 268.396C341.269 267.934 341.379 267.433 341.379 266.893C341.379 266.29 341.248 265.775 340.985 265.349C340.722 264.915 340.36 264.582 339.898 264.347C339.437 264.113 338.908 263.996 338.311 263.996C337.707 263.996 337.178 264.12 336.724 264.369C336.269 264.61 335.914 264.962 335.658 265.423C335.41 265.885 335.286 266.446 335.286 267.107H330.289C330.289 265.622 330.623 264.34 331.29 263.261C331.958 262.181 332.896 261.35 334.103 260.768C335.317 260.178 336.727 259.884 338.332 259.884C339.987 259.884 341.425 260.161 342.647 260.714C343.869 261.268 344.813 262.043 345.481 263.037C346.156 264.024 346.493 265.171 346.493 266.478C346.493 267.309 346.326 268.133 345.992 268.95C345.658 269.766 345.058 270.668 344.192 271.656C343.332 272.643 342.111 273.825 340.527 275.203L337.917 277.611V277.749H346.759V282H330.609Z" fill="white"/>
<circle cx="436.5" cy="272.5" r="17.5" fill="black"/>
<path d="M435.908 284.298C434.246 284.298 432.772 284.014 431.487 283.446C430.208 282.871 429.2 282.079 428.461 281.07C427.722 280.062 427.346 278.901 427.332 277.587H432.637C432.658 278.062 432.811 278.485 433.095 278.854C433.379 279.217 433.766 279.501 434.256 279.707C434.746 279.913 435.304 280.016 435.929 280.016C436.554 280.016 437.104 279.906 437.58 279.685C438.063 279.458 438.44 279.149 438.71 278.759C438.979 278.361 439.111 277.906 439.104 277.395C439.111 276.884 438.965 276.429 438.667 276.031C438.369 275.634 437.946 275.325 437.399 275.104C436.859 274.884 436.22 274.774 435.482 274.774H433.362V271.024H435.482C436.128 271.024 436.696 270.918 437.186 270.705C437.683 270.491 438.07 270.193 438.347 269.81C438.624 269.419 438.759 268.972 438.752 268.467C438.759 267.977 438.642 267.548 438.401 267.178C438.166 266.802 437.836 266.511 437.41 266.305C436.991 266.099 436.504 265.996 435.95 265.996C435.368 265.996 434.839 266.099 434.363 266.305C433.894 266.511 433.521 266.802 433.244 267.178C432.967 267.555 432.822 267.991 432.808 268.489H427.768C427.783 267.189 428.145 266.045 428.855 265.058C429.565 264.064 430.531 263.286 431.753 262.725C432.982 262.164 434.381 261.884 435.95 261.884C437.513 261.884 438.887 262.157 440.073 262.704C441.259 263.251 442.183 263.996 442.843 264.941C443.504 265.879 443.834 266.94 443.834 268.126C443.841 269.355 443.44 270.367 442.63 271.163C441.827 271.958 440.794 272.448 439.53 272.633V272.803C441.22 273.002 442.495 273.549 443.354 274.444C444.221 275.339 444.651 276.457 444.643 277.8C444.643 279.064 444.271 280.186 443.525 281.166C442.786 282.139 441.756 282.906 440.435 283.467C439.121 284.021 437.612 284.298 435.908 284.298Z" fill="white"/>
<circle cx="144.5" cy="225.5" r="17.5" fill="black"/>
<path d="M134.342 232.378V228.266L143.281 214.182H146.935V219.764H144.815L139.584 228.053V228.223H152.528V232.378H134.342ZM144.879 236V231.121L144.985 229.32V214.182H149.918V236H144.879Z" fill="white"/>
<circle cx="338.5" cy="224.5" r="17.5" fill="black"/>
<path d="M337.961 236.298C336.37 236.298 334.957 236.011 333.721 235.435C332.485 234.86 331.509 234.068 330.791 233.06C330.081 232.051 329.712 230.893 329.683 229.587H334.797C334.839 230.389 335.166 231.036 335.777 231.526C336.388 232.009 337.116 232.25 337.961 232.25C338.621 232.25 339.207 232.104 339.719 231.813C340.23 231.522 340.631 231.114 340.923 230.588C341.214 230.055 341.356 229.445 341.349 228.756C341.356 228.053 341.21 227.438 340.912 226.913C340.621 226.387 340.216 225.979 339.697 225.688C339.186 225.389 338.597 225.24 337.929 225.24C337.297 225.233 336.697 225.371 336.129 225.656C335.567 225.94 335.141 226.327 334.85 226.817L330.195 225.943L331.143 214.182H345.141V218.433H335.479L334.978 223.578H335.106C335.468 222.974 336.05 222.477 336.853 222.087C337.663 221.689 338.582 221.49 339.612 221.49C340.919 221.49 342.084 221.795 343.107 222.406C344.136 223.01 344.946 223.848 345.536 224.92C346.132 225.993 346.43 227.222 346.43 228.607C346.43 230.105 346.075 231.433 345.365 232.591C344.662 233.749 343.675 234.658 342.403 235.318C341.139 235.972 339.658 236.298 337.961 236.298Z" fill="white"/>
<circle cx="436.5" cy="224.5" r="17.5" fill="black"/>
<path d="M436.355 235.298C435.162 235.298 434.018 235.107 432.925 234.723C431.831 234.332 430.858 233.714 430.006 232.869C429.153 232.017 428.482 230.902 427.992 229.524C427.502 228.139 427.261 226.452 427.268 224.464C427.275 222.667 427.495 221.055 427.928 219.627C428.362 218.192 428.979 216.974 429.782 215.973C430.592 214.972 431.558 214.208 432.68 213.683C433.809 213.15 435.07 212.884 436.462 212.884C437.989 212.884 439.335 213.182 440.499 213.778C441.671 214.368 442.609 215.163 443.312 216.165C444.015 217.159 444.43 218.267 444.558 219.489H439.37C439.214 218.8 438.869 218.278 438.337 217.923C437.811 217.56 437.186 217.379 436.462 217.379C435.126 217.379 434.129 217.958 433.468 219.116C432.815 220.273 432.481 221.822 432.467 223.761H432.605C432.903 223.107 433.333 222.546 433.894 222.077C434.455 221.609 435.098 221.25 435.822 221.001C436.554 220.746 437.328 220.618 438.145 220.618C439.452 220.618 440.606 220.92 441.607 221.523C442.609 222.127 443.393 222.955 443.962 224.006C444.53 225.05 444.81 226.246 444.803 227.596C444.81 229.116 444.455 230.458 443.738 231.623C443.021 232.781 442.026 233.683 440.755 234.329C439.491 234.975 438.024 235.298 436.355 235.298ZM436.323 231.25C436.969 231.25 437.548 231.097 438.06 230.792C438.571 230.487 438.972 230.071 439.263 229.545C439.555 229.02 439.697 228.427 439.69 227.766C439.697 227.099 439.555 226.506 439.263 225.987C438.979 225.469 438.582 225.057 438.07 224.751C437.566 224.446 436.987 224.293 436.334 224.293C435.858 224.293 435.414 224.382 435.002 224.56C434.59 224.737 434.232 224.986 433.926 225.305C433.628 225.618 433.393 225.987 433.223 226.413C433.053 226.832 432.964 227.287 432.957 227.777C432.964 228.423 433.113 229.009 433.404 229.535C433.695 230.06 434.093 230.479 434.597 230.792C435.102 231.097 435.677 231.25 436.323 231.25Z" fill="white"/>
<circle cx="144.5" cy="175.5" r="17.5" fill="black"/>
<path d="M138.536 187L147.335 169.571V169.433H137.044V165.182H152.79V169.464L143.958 187H138.536Z" fill="white"/>
<circle cx="338.5" cy="176.5" r="17.5" fill="#1870D8"/>
<path d="M342.697 166.182V188H337.435V171.104H337.307L332.428 174.087V169.527L337.808 166.182H342.697Z" fill="white"/>
<circle cx="46.5" cy="128.5" r="17.5" fill="black"/>
<path d="M38.6087 139V135.207L46.5668 128.24C47.1634 127.7 47.6712 127.207 48.0902 126.759C48.5092 126.305 48.8288 125.85 49.049 125.396C49.2692 124.934 49.3793 124.433 49.3793 123.893C49.3793 123.29 49.2479 122.775 48.9851 122.349C48.7223 121.915 48.3601 121.582 47.8984 121.347C47.4368 121.113 46.9077 120.996 46.3111 120.996C45.7074 120.996 45.1783 121.12 44.7237 121.369C44.2692 121.61 43.9141 121.962 43.6584 122.423C43.4098 122.885 43.2855 123.446 43.2855 124.107H38.2891C38.2891 122.622 38.6229 121.34 39.2905 120.261C39.9581 119.181 40.8956 118.35 42.103 117.768C43.3175 117.178 44.7273 116.884 46.3324 116.884C47.9872 116.884 49.4254 117.161 50.647 117.714C51.8686 118.268 52.8132 119.043 53.4808 120.037C54.1555 121.024 54.4929 122.171 54.4929 123.478C54.4929 124.309 54.326 125.133 53.9922 125.95C53.6584 126.766 53.0582 127.668 52.1918 128.656C51.3324 129.643 50.1108 130.825 48.527 132.203L45.9169 134.611V134.749H54.7592V139H38.6087Z" fill="white"/>
<circle cx="144.5" cy="128.5" r="17.5" fill="black"/>
<path d="M143.908 140.298C142.246 140.298 140.772 140.014 139.487 139.446C138.208 138.871 137.2 138.079 136.461 137.07C135.722 136.062 135.346 134.901 135.332 133.587H140.637C140.658 134.062 140.811 134.485 141.095 134.854C141.379 135.217 141.766 135.501 142.256 135.707C142.746 135.913 143.304 136.016 143.929 136.016C144.554 136.016 145.104 135.906 145.58 135.685C146.063 135.458 146.44 135.149 146.71 134.759C146.979 134.361 147.111 133.906 147.104 133.395C147.111 132.884 146.965 132.429 146.667 132.031C146.369 131.634 145.946 131.325 145.399 131.104C144.859 130.884 144.22 130.774 143.482 130.774H141.362V127.024H143.482C144.128 127.024 144.696 126.918 145.186 126.705C145.683 126.491 146.07 126.193 146.347 125.81C146.624 125.419 146.759 124.972 146.752 124.467C146.759 123.977 146.642 123.548 146.401 123.178C146.166 122.802 145.836 122.511 145.41 122.305C144.991 122.099 144.504 121.996 143.95 121.996C143.368 121.996 142.839 122.099 142.363 122.305C141.894 122.511 141.521 122.802 141.244 123.178C140.967 123.555 140.822 123.991 140.808 124.489H135.768C135.783 123.189 136.145 122.045 136.855 121.058C137.565 120.064 138.531 119.286 139.753 118.725C140.982 118.164 142.381 117.884 143.95 117.884C145.513 117.884 146.887 118.157 148.073 118.704C149.259 119.251 150.183 119.996 150.843 120.941C151.504 121.879 151.834 122.94 151.834 124.126C151.841 125.355 151.44 126.367 150.63 127.163C149.827 127.958 148.794 128.448 147.53 128.633V128.803C149.22 129.002 150.495 129.549 151.354 130.444C152.221 131.339 152.651 132.457 152.643 133.8C152.643 135.064 152.271 136.186 151.525 137.166C150.786 138.139 149.756 138.906 148.435 139.467C147.121 140.021 145.612 140.298 143.908 140.298Z" fill="white"/>
<circle cx="338.5" cy="129.5" r="17.5" fill="black"/>
<path d="M328.342 136.378V132.266L337.281 118.182H340.935V123.764H338.815L333.584 132.053V132.223H346.528V136.378H328.342ZM338.879 140V135.121L338.985 133.32V118.182H343.918V140H338.879Z" fill="white"/>
<circle cx="144.5" cy="81.5" r="17.5" fill="black"/>
<path d="M143.961 93.2983C142.37 93.2983 140.957 93.0107 139.721 92.4354C138.485 91.8601 137.509 91.0682 136.791 90.0597C136.081 89.0511 135.712 87.8935 135.683 86.5866H140.797C140.839 87.3892 141.166 88.0355 141.777 88.5256C142.388 89.0085 143.116 89.25 143.961 89.25C144.621 89.25 145.207 89.1044 145.719 88.8132C146.23 88.522 146.631 88.1136 146.923 87.5881C147.214 87.0554 147.356 86.4446 147.349 85.7557C147.356 85.0526 147.21 84.4382 146.912 83.9126C146.621 83.3871 146.216 82.9787 145.697 82.6875C145.186 82.3892 144.597 82.2401 143.929 82.2401C143.297 82.233 142.697 82.3714 142.129 82.6555C141.567 82.9396 141.141 83.3267 140.85 83.8168L136.195 82.9432L137.143 71.1818H151.141V75.4325H141.479L140.978 80.5781H141.106C141.468 79.9744 142.05 79.4773 142.853 79.0866C143.663 78.6889 144.582 78.4901 145.612 78.4901C146.919 78.4901 148.084 78.7955 149.107 79.4062C150.136 80.0099 150.946 80.848 151.536 81.9205C152.132 82.9929 152.43 84.2216 152.43 85.6065C152.43 87.1051 152.075 88.4332 151.365 89.5909C150.662 90.7486 149.675 91.6577 148.403 92.3182C147.139 92.9716 145.658 93.2983 143.961 93.2983Z" fill="white"/>
<circle cx="241.5" cy="82.5" r="17.5" fill="black"/>
<path d="M241.355 93.2983C240.162 93.2983 239.018 93.1065 237.925 92.723C236.831 92.3324 235.858 91.7145 235.006 90.8693C234.153 90.017 233.482 88.902 232.992 87.5241C232.502 86.1392 232.261 84.4524 232.268 82.4638C232.275 80.6669 232.495 79.0547 232.928 77.6271C233.362 76.1925 233.979 74.9744 234.782 73.973C235.592 72.9716 236.558 72.2081 237.68 71.6825C238.809 71.1499 240.07 70.8835 241.462 70.8835C242.989 70.8835 244.335 71.1818 245.499 71.7784C246.671 72.3679 247.609 73.1634 248.312 74.1648C249.015 75.1591 249.43 76.267 249.558 77.4886H244.37C244.214 76.7997 243.869 76.2777 243.337 75.9226C242.811 75.5604 242.186 75.3793 241.462 75.3793C240.126 75.3793 239.129 75.9581 238.468 77.1158C237.815 78.2734 237.481 79.8217 237.467 81.7607H237.605C237.903 81.1072 238.333 80.5462 238.894 80.0774C239.455 79.6087 240.098 79.25 240.822 79.0014C241.554 78.7457 242.328 78.6179 243.145 78.6179C244.452 78.6179 245.606 78.9197 246.607 79.5234C247.609 80.1271 248.393 80.9545 248.962 82.0057C249.53 83.0497 249.81 84.2464 249.803 85.5959C249.81 87.1158 249.455 88.4581 248.738 89.6229C248.021 90.7805 247.026 91.6825 245.755 92.3288C244.491 92.9751 243.024 93.2983 241.355 93.2983ZM241.323 89.25C241.969 89.25 242.548 89.0973 243.06 88.7919C243.571 88.4865 243.972 88.071 244.263 87.5455C244.555 87.0199 244.697 86.4268 244.69 85.7663C244.697 85.0987 244.555 84.5057 244.263 83.9872C243.979 83.4687 243.582 83.0568 243.07 82.7514C242.566 82.446 241.987 82.2933 241.334 82.2933C240.858 82.2933 240.414 82.3821 240.002 82.5597C239.59 82.7372 239.232 82.9858 238.926 83.3054C238.628 83.6179 238.393 83.9872 238.223 84.4134C238.053 84.8324 237.964 85.2869 237.957 85.777C237.964 86.4233 238.113 87.0092 238.404 87.5348C238.695 88.0604 239.093 88.4794 239.597 88.7919C240.102 89.0973 240.677 89.25 241.323 89.25Z" fill="white"/>
<circle cx="436.5" cy="81.5" r="17.5" fill="black"/>
<path d="M430.536 93L439.335 75.571V75.4325H429.044V71.1818H444.79V75.4645L435.958 93H430.536Z" fill="white"/>
<circle cx="144.5" cy="34.5" r="17.5" fill="#1870D8"/>
<path d="M148.697 24.1818V46H143.435V29.1037H143.307L138.428 32.0866V27.527L143.808 24.1818H148.697Z" fill="white"/>
<circle cx="338.5" cy="34.5" r="17.5" fill="black"/>
<path d="M330.609 45V41.2074L338.567 34.2401C339.163 33.7003 339.671 33.2067 340.09 32.7592C340.509 32.3047 340.829 31.8501 341.049 31.3956C341.269 30.9339 341.379 30.4332 341.379 29.8935C341.379 29.2898 341.248 28.7749 340.985 28.3487C340.722 27.9155 340.36 27.5817 339.898 27.3473C339.437 27.1129 338.908 26.9957 338.311 26.9957C337.707 26.9957 337.178 27.12 336.724 27.3686C336.269 27.6101 335.914 27.9616 335.658 28.4233C335.41 28.8849 335.286 29.446 335.286 30.1065H330.289C330.289 28.6222 330.623 27.3402 331.29 26.2607C331.958 25.1811 332.896 24.3501 334.103 23.7678C335.317 23.1783 336.727 22.8835 338.332 22.8835C339.987 22.8835 341.425 23.1605 342.647 23.7145C343.869 24.2685 344.813 25.0426 345.481 26.0369C346.156 27.0241 346.493 28.1712 346.493 29.478C346.493 30.3089 346.326 31.1328 345.992 31.9496C345.658 32.7663 345.058 33.6683 344.192 34.6555C343.332 35.6428 342.111 36.8253 340.527 38.2031L337.917 40.6108V40.7493H346.759V45H330.609Z" fill="white"/>
<circle cx="436.5" cy="34.5" r="17.5" fill="black"/>
<path d="M436.908 46.2983C435.246 46.2983 433.772 46.0142 432.487 45.446C431.208 44.8707 430.2 44.0788 429.461 43.0703C428.722 42.0618 428.346 40.9006 428.332 39.5866H433.637C433.658 40.0625 433.811 40.4851 434.095 40.8544C434.379 41.2166 434.766 41.5007 435.256 41.7067C435.746 41.9126 436.304 42.0156 436.929 42.0156C437.554 42.0156 438.104 41.9055 438.58 41.6854C439.063 41.4581 439.44 41.1491 439.71 40.7585C439.979 40.3608 440.111 39.9062 440.104 39.3949C440.111 38.8835 439.965 38.429 439.667 38.0312C439.369 37.6335 438.946 37.3246 438.399 37.1044C437.859 36.8842 437.22 36.7741 436.482 36.7741H434.362V33.0241H436.482C437.128 33.0241 437.696 32.9176 438.186 32.7045C438.683 32.4915 439.07 32.1932 439.347 31.8097C439.624 31.419 439.759 30.9716 439.752 30.4673C439.759 29.9773 439.642 29.5476 439.401 29.1783C439.166 28.8018 438.836 28.5107 438.41 28.3047C437.991 28.0987 437.504 27.9957 436.95 27.9957C436.368 27.9957 435.839 28.0987 435.363 28.3047C434.894 28.5107 434.521 28.8018 434.244 29.1783C433.967 29.5547 433.822 29.9915 433.808 30.4886H428.768C428.783 29.1889 429.145 28.0455 429.855 27.0582C430.565 26.0639 431.531 25.2862 432.753 24.7251C433.982 24.1641 435.381 23.8835 436.95 23.8835C438.513 23.8835 439.887 24.157 441.073 24.7038C442.259 25.2507 443.183 25.9964 443.843 26.9411C444.504 27.8786 444.834 28.9403 444.834 30.1264C444.841 31.3551 444.44 32.3672 443.63 33.1626C442.827 33.9581 441.794 34.4482 440.53 34.6328V34.8033C442.22 35.0021 443.495 35.549 444.354 36.4439C445.221 37.3388 445.651 38.4574 445.643 39.7997C445.643 41.0639 445.271 42.1861 444.525 43.1662C443.786 44.1392 442.756 44.9062 441.435 45.4673C440.121 46.0213 438.612 46.2983 436.908 46.2983Z" fill="white"/>
</svg>
