<svg width="578" height="343" viewBox="0 0 578 343" fill="none" xmlns="http://www.w3.org/2000/svg">
<rect width="578" height="343" rx="17" fill="white"/>
<path d="M232.835 302.909V332H228.432V307.312H228.261L221.301 311.858V307.653L228.56 302.909H232.835ZM250.832 332.483C248.588 332.473 246.67 331.882 245.08 330.707C243.489 329.533 242.272 327.824 241.429 325.58C240.586 323.335 240.165 320.632 240.165 317.469C240.165 314.315 240.586 311.621 241.429 309.386C242.281 307.152 243.503 305.447 245.094 304.273C246.694 303.098 248.607 302.511 250.832 302.511C253.058 302.511 254.966 303.103 256.557 304.287C258.148 305.461 259.365 307.166 260.207 309.401C261.06 311.626 261.486 314.315 261.486 317.469C261.486 320.641 261.064 323.349 260.222 325.594C259.379 327.829 258.162 329.538 256.571 330.722C254.98 331.896 253.067 332.483 250.832 332.483ZM250.832 328.69C252.802 328.69 254.341 327.729 255.449 325.807C256.566 323.884 257.125 321.105 257.125 317.469C257.125 315.054 256.869 313.013 256.358 311.347C255.856 309.67 255.132 308.402 254.185 307.54C253.247 306.669 252.13 306.233 250.832 306.233C248.872 306.233 247.333 307.199 246.216 309.131C245.098 311.062 244.535 313.842 244.526 317.469C244.526 319.893 244.777 321.943 245.278 323.619C245.79 325.286 246.514 326.55 247.452 327.412C248.389 328.264 249.516 328.69 250.832 328.69Z" fill="black"/>
<path d="M0 23H578V285H0V23Z" fill="#EDC18D"/>
<line x1="95.4258" y1="23" x2="95.4258" y2="285" stroke="#7A7474" stroke-width="8"/>
<line x1="192.51" y1="23" x2="192.51" y2="285" stroke="#7A7474" stroke-width="8"/>
<line x1="483.761" y1="23" x2="483.761" y2="285" stroke="#7A7474" stroke-width="8"/>
<line x1="386.677" y1="23" x2="386.677" y2="285" stroke="#7A7474" stroke-width="8"/>
<line x1="289.594" y1="23" x2="289.593" y2="285" stroke="#7A7474" stroke-width="8"/>
<circle cx="143.923" cy="152.755" r="15.7548" fill="#CFC3BA"/>
<circle cx="435.755" cy="92.7548" r="15.7548" fill="#CFC3BA"/>
<circle cx="435.755" cy="218.755" r="15.7548" fill="#CFC3BA"/>
<line x1="2.62268e-07" y1="272" x2="578" y2="272" stroke="white" stroke-width="6"/>
<line x1="2.18557e-07" y1="224.5" x2="578" y2="224.5" stroke="white" stroke-width="5"/>
<line x1="1.74846e-07" y1="177" x2="578" y2="177" stroke="white" stroke-width="4"/>
<line x1="1.31134e-07" y1="129.5" x2="578" y2="129.5" stroke="white" stroke-width="3"/>
<line x1="8.74228e-08" y1="82" x2="578" y2="82.0001" stroke="white" stroke-width="2"/>
<line x1="1" y1="34.5" x2="577" y2="34.5" stroke="white"/>
<circle cx="241.5" cy="271.5" r="17.5" fill="#1870D8"/>
<path d="M245.697 261.182V283H240.435V266.104H240.307L235.428 269.087V264.527L240.808 261.182H245.697Z" fill="white"/>
<circle cx="435.5" cy="271.5" r="17.5" fill="black"/>
<path d="M427.609 282V278.207L435.567 271.24C436.163 270.7 436.671 270.207 437.09 269.759C437.509 269.305 437.829 268.85 438.049 268.396C438.269 267.934 438.379 267.433 438.379 266.893C438.379 266.29 438.248 265.775 437.985 265.349C437.722 264.915 437.36 264.582 436.898 264.347C436.437 264.113 435.908 263.996 435.311 263.996C434.707 263.996 434.178 264.12 433.724 264.369C433.269 264.61 432.914 264.962 432.658 265.423C432.41 265.885 432.286 266.446 432.286 267.107H427.289C427.289 265.622 427.623 264.34 428.29 263.261C428.958 262.181 429.896 261.35 431.103 260.768C432.317 260.178 433.727 259.884 435.332 259.884C436.987 259.884 438.425 260.161 439.647 260.714C440.869 261.268 441.813 262.043 442.481 263.037C443.156 264.024 443.493 265.171 443.493 266.478C443.493 267.309 443.326 268.133 442.992 268.95C442.658 269.766 442.058 270.668 441.192 271.656C440.332 272.643 439.111 273.825 437.527 275.203L434.917 277.611V277.749H443.759V282H427.609Z" fill="white"/>
<circle cx="144.5" cy="224.5" r="17.5" fill="black"/>
<path d="M143.908 236.298C142.246 236.298 140.772 236.014 139.487 235.446C138.208 234.871 137.2 234.079 136.461 233.07C135.722 232.062 135.346 230.901 135.332 229.587H140.637C140.658 230.062 140.811 230.485 141.095 230.854C141.379 231.217 141.766 231.501 142.256 231.707C142.746 231.913 143.304 232.016 143.929 232.016C144.554 232.016 145.104 231.906 145.58 231.685C146.063 231.458 146.44 231.149 146.71 230.759C146.979 230.361 147.111 229.906 147.104 229.395C147.111 228.884 146.965 228.429 146.667 228.031C146.369 227.634 145.946 227.325 145.399 227.104C144.859 226.884 144.22 226.774 143.482 226.774H141.362V223.024H143.482C144.128 223.024 144.696 222.918 145.186 222.705C145.683 222.491 146.07 222.193 146.347 221.81C146.624 221.419 146.759 220.972 146.752 220.467C146.759 219.977 146.642 219.548 146.401 219.178C146.166 218.802 145.836 218.511 145.41 218.305C144.991 218.099 144.504 217.996 143.95 217.996C143.368 217.996 142.839 218.099 142.363 218.305C141.894 218.511 141.521 218.802 141.244 219.178C140.967 219.555 140.822 219.991 140.808 220.489H135.768C135.783 219.189 136.145 218.045 136.855 217.058C137.565 216.064 138.531 215.286 139.753 214.725C140.982 214.164 142.381 213.884 143.95 213.884C145.513 213.884 146.887 214.157 148.073 214.704C149.259 215.251 150.183 215.996 150.843 216.941C151.504 217.879 151.834 218.94 151.834 220.126C151.841 221.355 151.44 222.367 150.63 223.163C149.827 223.958 148.794 224.448 147.53 224.633V224.803C149.22 225.002 150.495 225.549 151.354 226.444C152.221 227.339 152.651 228.457 152.643 229.8C152.643 231.064 152.271 232.186 151.525 233.166C150.786 234.139 149.756 234.906 148.435 235.467C147.121 236.021 145.612 236.298 143.908 236.298Z" fill="white"/>
<circle cx="241.5" cy="224.5" r="17.5" fill="black"/>
<path d="M231.342 231.378V227.266L240.281 213.182H243.935V218.764H241.815L236.584 227.053V227.223H249.528V231.378H231.342ZM241.879 235V230.121L241.985 228.32V213.182H246.918V235H241.879Z" fill="white"/>
<circle cx="435.5" cy="224.5" r="17.5" fill="black"/>
<path d="M434.961 236.298C433.37 236.298 431.957 236.011 430.721 235.435C429.485 234.86 428.509 234.068 427.791 233.06C427.081 232.051 426.712 230.893 426.683 229.587H431.797C431.839 230.389 432.166 231.036 432.777 231.526C433.388 232.009 434.116 232.25 434.961 232.25C435.621 232.25 436.207 232.104 436.719 231.813C437.23 231.522 437.631 231.114 437.923 230.588C438.214 230.055 438.356 229.445 438.349 228.756C438.356 228.053 438.21 227.438 437.912 226.913C437.621 226.387 437.216 225.979 436.697 225.688C436.186 225.389 435.597 225.24 434.929 225.24C434.297 225.233 433.697 225.371 433.129 225.656C432.567 225.94 432.141 226.327 431.85 226.817L427.195 225.943L428.143 214.182H442.141V218.433H432.479L431.978 223.578H432.106C432.468 222.974 433.05 222.477 433.853 222.087C434.663 221.689 435.582 221.49 436.612 221.49C437.919 221.49 439.084 221.795 440.107 222.406C441.136 223.01 441.946 223.848 442.536 224.92C443.132 225.993 443.43 227.222 443.43 228.607C443.43 230.105 443.075 231.433 442.365 232.591C441.662 233.749 440.675 234.658 439.403 235.318C438.139 235.972 436.658 236.298 434.961 236.298Z" fill="white"/>
<circle cx="144.5" cy="176.5" r="17.5" fill="black"/>
<path d="M144.355 187.298C143.162 187.298 142.018 187.107 140.925 186.723C139.831 186.332 138.858 185.714 138.006 184.869C137.153 184.017 136.482 182.902 135.992 181.524C135.502 180.139 135.261 178.452 135.268 176.464C135.275 174.667 135.495 173.055 135.928 171.627C136.362 170.192 136.979 168.974 137.782 167.973C138.592 166.972 139.558 166.208 140.68 165.683C141.809 165.15 143.07 164.884 144.462 164.884C145.989 164.884 147.335 165.182 148.499 165.778C149.671 166.368 150.609 167.163 151.312 168.165C152.015 169.159 152.43 170.267 152.558 171.489H147.37C147.214 170.8 146.869 170.278 146.337 169.923C145.811 169.56 145.186 169.379 144.462 169.379C143.126 169.379 142.129 169.958 141.468 171.116C140.815 172.273 140.481 173.822 140.467 175.761H140.605C140.903 175.107 141.333 174.546 141.894 174.077C142.455 173.609 143.098 173.25 143.822 173.001C144.554 172.746 145.328 172.618 146.145 172.618C147.452 172.618 148.606 172.92 149.607 173.523C150.609 174.127 151.393 174.955 151.962 176.006C152.53 177.05 152.81 178.246 152.803 179.596C152.81 181.116 152.455 182.458 151.738 183.623C151.021 184.781 150.026 185.683 148.755 186.329C147.491 186.975 146.024 187.298 144.355 187.298ZM144.323 183.25C144.969 183.25 145.548 183.097 146.06 182.792C146.571 182.487 146.972 182.071 147.263 181.545C147.555 181.02 147.697 180.427 147.69 179.766C147.697 179.099 147.555 178.506 147.263 177.987C146.979 177.469 146.582 177.057 146.07 176.751C145.566 176.446 144.987 176.293 144.334 176.293C143.858 176.293 143.414 176.382 143.002 176.56C142.59 176.737 142.232 176.986 141.926 177.305C141.628 177.618 141.393 177.987 141.223 178.413C141.053 178.832 140.964 179.287 140.957 179.777C140.964 180.423 141.113 181.009 141.404 181.535C141.695 182.06 142.093 182.479 142.597 182.792C143.102 183.097 143.677 183.25 144.323 183.25Z" fill="white"/>
<circle cx="338.5" cy="176.5" r="17.5" fill="black"/>
<path d="M332.536 188L341.335 170.571V170.433H331.044V166.182H346.79V170.464L337.958 188H332.536Z" fill="white"/>
<circle cx="435.5" cy="176.5" r="17.5" fill="#1870D8"/>
<path d="M439.697 166.182V188H434.435V171.104H434.307L429.428 174.087V169.527L434.808 166.182H439.697Z" fill="white"/>
<circle cx="144.5" cy="128.5" r="17.5" fill="black"/>
<path d="M136.609 139V135.207L144.567 128.24C145.163 127.7 145.671 127.207 146.09 126.759C146.509 126.305 146.829 125.85 147.049 125.396C147.269 124.934 147.379 124.433 147.379 123.893C147.379 123.29 147.248 122.775 146.985 122.349C146.722 121.915 146.36 121.582 145.898 121.347C145.437 121.113 144.908 120.996 144.311 120.996C143.707 120.996 143.178 121.12 142.724 121.369C142.269 121.61 141.914 121.962 141.658 122.423C141.41 122.885 141.286 123.446 141.286 124.107H136.289C136.289 122.622 136.623 121.34 137.29 120.261C137.958 119.181 138.896 118.35 140.103 117.768C141.317 117.178 142.727 116.884 144.332 116.884C145.987 116.884 147.425 117.161 148.647 117.714C149.869 118.268 150.813 119.043 151.481 120.037C152.156 121.024 152.493 122.171 152.493 123.478C152.493 124.309 152.326 125.133 151.992 125.95C151.658 126.766 151.058 127.668 150.192 128.656C149.332 129.643 148.111 130.825 146.527 132.203L143.917 134.611V134.749H152.759V139H136.609Z" fill="white"/>
<circle cx="338.5" cy="128.5" r="17.5" fill="black"/>
<path d="M337.908 140.298C336.246 140.298 334.772 140.014 333.487 139.446C332.208 138.871 331.2 138.079 330.461 137.07C329.722 136.062 329.346 134.901 329.332 133.587H334.637C334.658 134.062 334.811 134.485 335.095 134.854C335.379 135.217 335.766 135.501 336.256 135.707C336.746 135.913 337.304 136.016 337.929 136.016C338.554 136.016 339.104 135.906 339.58 135.685C340.063 135.458 340.44 135.149 340.71 134.759C340.979 134.361 341.111 133.906 341.104 133.395C341.111 132.884 340.965 132.429 340.667 132.031C340.369 131.634 339.946 131.325 339.399 131.104C338.859 130.884 338.22 130.774 337.482 130.774H335.362V127.024H337.482C338.128 127.024 338.696 126.918 339.186 126.705C339.683 126.491 340.07 126.193 340.347 125.81C340.624 125.419 340.759 124.972 340.752 124.467C340.759 123.977 340.642 123.548 340.401 123.178C340.166 122.802 339.836 122.511 339.41 122.305C338.991 122.099 338.504 121.996 337.95 121.996C337.368 121.996 336.839 122.099 336.363 122.305C335.894 122.511 335.521 122.802 335.244 123.178C334.967 123.555 334.822 123.991 334.808 124.489H329.768C329.783 123.189 330.145 122.045 330.855 121.058C331.565 120.064 332.531 119.286 333.753 118.725C334.982 118.164 336.381 117.884 337.95 117.884C339.513 117.884 340.887 118.157 342.073 118.704C343.259 119.251 344.183 119.996 344.843 120.941C345.504 121.879 345.834 122.94 345.834 124.126C345.841 125.355 345.44 126.367 344.63 127.163C343.827 127.958 342.794 128.448 341.53 128.633V128.803C343.22 129.002 344.495 129.549 345.354 130.444C346.221 131.339 346.651 132.457 346.643 133.8C346.643 135.064 346.271 136.186 345.525 137.166C344.786 138.139 343.756 138.906 342.435 139.467C341.121 140.021 339.612 140.298 337.908 140.298Z" fill="white"/>
<circle cx="435.5" cy="128.5" r="17.5" fill="black"/>
<path d="M425.342 135.378V131.266L434.281 117.182H437.935V122.764H435.815L430.584 131.053V131.223H443.528V135.378H425.342ZM435.879 139V134.121L435.985 132.32V117.182H440.918V139H435.879Z" fill="white"/>
<circle cx="241.5" cy="80.5" r="17.5" fill="black"/>
<path d="M240.961 92.2983C239.37 92.2983 237.957 92.0107 236.721 91.4354C235.485 90.8601 234.509 90.0682 233.791 89.0597C233.081 88.0511 232.712 86.8935 232.683 85.5866H237.797C237.839 86.3892 238.166 87.0355 238.777 87.5256C239.388 88.0085 240.116 88.25 240.961 88.25C241.621 88.25 242.207 88.1044 242.719 87.8132C243.23 87.522 243.631 87.1136 243.923 86.5881C244.214 86.0554 244.356 85.4446 244.349 84.7557C244.356 84.0526 244.21 83.4382 243.912 82.9126C243.621 82.3871 243.216 81.9787 242.697 81.6875C242.186 81.3892 241.597 81.2401 240.929 81.2401C240.297 81.233 239.697 81.3714 239.129 81.6555C238.567 81.9396 238.141 82.3267 237.85 82.8168L233.195 81.9432L234.143 70.1818H248.141V74.4325H238.479L237.978 79.5781H238.106C238.468 78.9744 239.05 78.4773 239.853 78.0866C240.663 77.6889 241.582 77.4901 242.612 77.4901C243.919 77.4901 245.084 77.7955 246.107 78.4062C247.136 79.0099 247.946 79.848 248.536 80.9205C249.132 81.9929 249.43 83.2216 249.43 84.6065C249.43 86.1051 249.075 87.4332 248.365 88.5909C247.662 89.7486 246.675 90.6577 245.403 91.3182C244.139 91.9716 242.658 92.2983 240.961 92.2983Z" fill="white"/>
<circle cx="435.5" cy="80.5" r="17.5" fill="black"/>
<path d="M435.355 91.2983C434.162 91.2983 433.018 91.1065 431.925 90.723C430.831 90.3324 429.858 89.7145 429.006 88.8693C428.153 88.017 427.482 86.902 426.992 85.5241C426.502 84.1392 426.261 82.4524 426.268 80.4638C426.275 78.6669 426.495 77.0547 426.928 75.6271C427.362 74.1925 427.979 72.9744 428.782 71.973C429.592 70.9716 430.558 70.2081 431.68 69.6825C432.809 69.1499 434.07 68.8835 435.462 68.8835C436.989 68.8835 438.335 69.1818 439.499 69.7784C440.671 70.3679 441.609 71.1634 442.312 72.1648C443.015 73.1591 443.43 74.267 443.558 75.4886H438.37C438.214 74.7997 437.869 74.2777 437.337 73.9226C436.811 73.5604 436.186 73.3793 435.462 73.3793C434.126 73.3793 433.129 73.9581 432.468 75.1158C431.815 76.2734 431.481 77.8217 431.467 79.7607H431.605C431.903 79.1072 432.333 78.5462 432.894 78.0774C433.455 77.6087 434.098 77.25 434.822 77.0014C435.554 76.7457 436.328 76.6179 437.145 76.6179C438.452 76.6179 439.606 76.9197 440.607 77.5234C441.609 78.1271 442.393 78.9545 442.962 80.0057C443.53 81.0497 443.81 82.2464 443.803 83.5959C443.81 85.1158 443.455 86.4581 442.738 87.6229C442.021 88.7805 441.026 89.6825 439.755 90.3288C438.491 90.9751 437.024 91.2983 435.355 91.2983ZM435.323 87.25C435.969 87.25 436.548 87.0973 437.06 86.7919C437.571 86.4865 437.972 86.071 438.263 85.5455C438.555 85.0199 438.697 84.4268 438.69 83.7663C438.697 83.0987 438.555 82.5057 438.263 81.9872C437.979 81.4687 437.582 81.0568 437.07 80.7514C436.566 80.446 435.987 80.2933 435.334 80.2933C434.858 80.2933 434.414 80.3821 434.002 80.5597C433.59 80.7372 433.232 80.9858 432.926 81.3054C432.628 81.6179 432.393 81.9872 432.223 82.4134C432.053 82.8324 431.964 83.2869 431.957 83.777C431.964 84.4233 432.113 85.0092 432.404 85.5348C432.695 86.0604 433.093 86.4794 433.597 86.7919C434.102 87.0973 434.677 87.25 435.323 87.25Z" fill="white"/>
<circle cx="144.5" cy="32.5" r="17.5" fill="black"/>
<path d="M138.536 44L147.335 26.571V26.4325H137.044V22.1818H152.79V26.4645L143.958 44H138.536Z" fill="white"/>
<circle cx="241.5" cy="32.5" r="17.5" fill="#1870D8"/>
<path d="M245.697 22.1818V44H240.435V27.1037H240.307L235.428 30.0866V25.527L240.808 22.1818H245.697Z" fill="white"/>
<circle cx="435.5" cy="32.5" r="17.5" fill="black"/>
<path d="M427.609 43V39.2074L435.567 32.2401C436.163 31.7003 436.671 31.2067 437.09 30.7592C437.509 30.3047 437.829 29.8501 438.049 29.3956C438.269 28.9339 438.379 28.4332 438.379 27.8935C438.379 27.2898 438.248 26.7749 437.985 26.3487C437.722 25.9155 437.36 25.5817 436.898 25.3473C436.437 25.1129 435.908 24.9957 435.311 24.9957C434.707 24.9957 434.178 25.12 433.724 25.3686C433.269 25.6101 432.914 25.9616 432.658 26.4233C432.41 26.8849 432.286 27.446 432.286 28.1065H427.289C427.289 26.6222 427.623 25.3402 428.29 24.2607C428.958 23.1811 429.896 22.3501 431.103 21.7678C432.317 21.1783 433.727 20.8835 435.332 20.8835C436.987 20.8835 438.425 21.1605 439.647 21.7145C440.869 22.2685 441.813 23.0426 442.481 24.0369C443.156 25.0241 443.493 26.1712 443.493 27.478C443.493 28.3089 443.326 29.1328 442.992 29.9496C442.658 30.7663 442.058 31.6683 441.192 32.6555C440.332 33.6428 439.111 34.8253 437.527 36.2031L434.917 38.6108V38.7493H443.759V43H427.609Z" fill="white"/>
</svg>
