<svg width="578" height="343" viewBox="0 0 578 343" fill="none" xmlns="http://www.w3.org/2000/svg">
<rect width="578" height="343" rx="17" fill="white"/>
<path d="M136.835 302.909V332H132.432V307.312H132.261L125.301 311.858V307.653L132.56 302.909H136.835ZM154.832 332.398C152.882 332.398 151.139 332.062 149.605 331.389C148.08 330.717 146.873 329.784 145.983 328.591C145.102 327.388 144.629 325.996 144.562 324.415H149.023C149.08 325.277 149.368 326.025 149.889 326.659C150.42 327.284 151.111 327.767 151.963 328.108C152.815 328.449 153.762 328.619 154.804 328.619C155.95 328.619 156.963 328.42 157.844 328.023C158.734 327.625 159.43 327.071 159.932 326.361C160.434 325.641 160.685 324.812 160.685 323.875C160.685 322.9 160.434 322.043 159.932 321.304C159.439 320.556 158.715 319.969 157.759 319.543C156.812 319.116 155.666 318.903 154.321 318.903H151.864V315.324H154.321C155.401 315.324 156.348 315.13 157.162 314.741C157.986 314.353 158.63 313.813 159.094 313.122C159.558 312.421 159.79 311.602 159.79 310.665C159.79 309.765 159.586 308.984 159.179 308.321C158.781 307.649 158.213 307.123 157.474 306.744C156.745 306.366 155.884 306.176 154.889 306.176C153.942 306.176 153.057 306.351 152.233 306.702C151.419 307.043 150.756 307.535 150.244 308.179C149.733 308.813 149.458 309.576 149.42 310.466H145.173C145.221 308.894 145.685 307.511 146.565 306.318C147.455 305.125 148.63 304.192 150.088 303.52C151.546 302.848 153.166 302.511 154.946 302.511C156.812 302.511 158.421 302.876 159.776 303.605C161.139 304.325 162.19 305.286 162.929 306.489C163.677 307.691 164.046 309.008 164.037 310.438C164.046 312.066 163.592 313.449 162.673 314.585C161.764 315.722 160.552 316.484 159.037 316.872V317.099C160.969 317.393 162.465 318.16 163.526 319.401C164.596 320.641 165.126 322.18 165.116 324.017C165.126 325.617 164.681 327.052 163.781 328.321C162.891 329.59 161.674 330.589 160.131 331.318C158.587 332.038 156.821 332.398 154.832 332.398Z" fill="black"/>
<path d="M0 23H578V285H0V23Z" fill="#EDC18D"/>
<line x1="95.4258" y1="23" x2="95.4258" y2="285" stroke="#7A7474" stroke-width="8"/>
<line x1="192.51" y1="23" x2="192.51" y2="285" stroke="#7A7474" stroke-width="8"/>
<line x1="483.761" y1="23" x2="483.761" y2="285" stroke="#7A7474" stroke-width="8"/>
<line x1="386.677" y1="23" x2="386.677" y2="285" stroke="#7A7474" stroke-width="8"/>
<line x1="289.594" y1="23" x2="289.594" y2="285" stroke="#7A7474" stroke-width="8"/>
<circle cx="47.7548" cy="92.7548" r="15.7548" fill="#CFC3BA"/>
<circle cx="47.7548" cy="218.755" r="15.7548" fill="#CFC3BA"/>
<circle cx="338.755" cy="153.755" r="15.7548" fill="#CFC3BA"/>
<path d="M548.51 153.755C548.51 162.456 541.456 169.51 532.755 169.51C524.054 169.51 517 162.456 517 153.755C517 145.054 524.054 138 532.755 138C541.456 138 548.51 145.054 548.51 153.755Z" fill="#CFC3BA"/>
<line x1="2.62268e-07" y1="272" x2="578" y2="272" stroke="white" stroke-width="6"/>
<line x1="2.18557e-07" y1="224.5" x2="578" y2="224.5" stroke="white" stroke-width="5"/>
<line x1="1.74846e-07" y1="177" x2="578" y2="177" stroke="white" stroke-width="4"/>
<line x1="1.31134e-07" y1="129.5" x2="578" y2="129.5" stroke="white" stroke-width="3"/>
<line x1="8.74228e-08" y1="82" x2="578" y2="82.0001" stroke="white" stroke-width="2"/>
<line x1="1" y1="34.5" x2="577" y2="34.5" stroke="white"/>
<circle cx="144.5" cy="271.5" r="17.5" fill="#1870D8"/>
<path d="M148.697 261.182V283H143.435V266.104H143.307L138.428 269.087V264.527L143.808 261.182H148.697Z" fill="white"/>
<circle cx="436.5" cy="272.5" r="17.5" fill="black"/>
<path d="M428.609 283V279.207L436.567 272.24C437.163 271.7 437.671 271.207 438.09 270.759C438.509 270.305 438.829 269.85 439.049 269.396C439.269 268.934 439.379 268.433 439.379 267.893C439.379 267.29 439.248 266.775 438.985 266.349C438.722 265.915 438.36 265.582 437.898 265.347C437.437 265.113 436.908 264.996 436.311 264.996C435.707 264.996 435.178 265.12 434.724 265.369C434.269 265.61 433.914 265.962 433.658 266.423C433.41 266.885 433.286 267.446 433.286 268.107H428.289C428.289 266.622 428.623 265.34 429.29 264.261C429.958 263.181 430.896 262.35 432.103 261.768C433.317 261.178 434.727 260.884 436.332 260.884C437.987 260.884 439.425 261.161 440.647 261.714C441.869 262.268 442.813 263.043 443.481 264.037C444.156 265.024 444.493 266.171 444.493 267.478C444.493 268.309 444.326 269.133 443.992 269.95C443.658 270.766 443.058 271.668 442.192 272.656C441.332 273.643 440.111 274.825 438.527 276.203L435.917 278.611V278.749H444.759V283H428.609Z" fill="white"/>
<circle cx="144.5" cy="223.5" r="17.5" fill="black"/>
<path d="M143.908 235.298C142.246 235.298 140.772 235.014 139.487 234.446C138.208 233.871 137.2 233.079 136.461 232.07C135.722 231.062 135.346 229.901 135.332 228.587H140.637C140.658 229.062 140.811 229.485 141.095 229.854C141.379 230.217 141.766 230.501 142.256 230.707C142.746 230.913 143.304 231.016 143.929 231.016C144.554 231.016 145.104 230.906 145.58 230.685C146.063 230.458 146.44 230.149 146.71 229.759C146.979 229.361 147.111 228.906 147.104 228.395C147.111 227.884 146.965 227.429 146.667 227.031C146.369 226.634 145.946 226.325 145.399 226.104C144.859 225.884 144.22 225.774 143.482 225.774H141.362V222.024H143.482C144.128 222.024 144.696 221.918 145.186 221.705C145.683 221.491 146.07 221.193 146.347 220.81C146.624 220.419 146.759 219.972 146.752 219.467C146.759 218.977 146.642 218.548 146.401 218.178C146.166 217.802 145.836 217.511 145.41 217.305C144.991 217.099 144.504 216.996 143.95 216.996C143.368 216.996 142.839 217.099 142.363 217.305C141.894 217.511 141.521 217.802 141.244 218.178C140.967 218.555 140.822 218.991 140.808 219.489H135.768C135.783 218.189 136.145 217.045 136.855 216.058C137.565 215.064 138.531 214.286 139.753 213.725C140.982 213.164 142.381 212.884 143.95 212.884C145.513 212.884 146.887 213.157 148.073 213.704C149.259 214.251 150.183 214.996 150.843 215.941C151.504 216.879 151.834 217.94 151.834 219.126C151.841 220.355 151.44 221.367 150.63 222.163C149.827 222.958 148.794 223.448 147.53 223.633V223.803C149.22 224.002 150.495 224.549 151.354 225.444C152.221 226.339 152.651 227.457 152.643 228.8C152.643 230.064 152.271 231.186 151.525 232.166C150.786 233.139 149.756 233.906 148.435 234.467C147.121 235.021 145.612 235.298 143.908 235.298Z" fill="white"/>
<circle cx="338.5" cy="224.5" r="17.5" fill="black"/>
<path d="M328.342 231.378V227.266L337.281 213.182H340.935V218.764H338.815L333.584 227.053V227.223H346.528V231.378H328.342ZM338.879 235V230.121L338.985 228.32V213.182H343.918V235H338.879Z" fill="white"/>
<circle cx="144.5" cy="176.5" r="17.5" fill="black"/>
<path d="M143.961 188.298C142.37 188.298 140.957 188.011 139.721 187.435C138.485 186.86 137.509 186.068 136.791 185.06C136.081 184.051 135.712 182.893 135.683 181.587H140.797C140.839 182.389 141.166 183.036 141.777 183.526C142.388 184.009 143.116 184.25 143.961 184.25C144.621 184.25 145.207 184.104 145.719 183.813C146.23 183.522 146.631 183.114 146.923 182.588C147.214 182.055 147.356 181.445 147.349 180.756C147.356 180.053 147.21 179.438 146.912 178.913C146.621 178.387 146.216 177.979 145.697 177.688C145.186 177.389 144.597 177.24 143.929 177.24C143.297 177.233 142.697 177.371 142.129 177.656C141.567 177.94 141.141 178.327 140.85 178.817L136.195 177.943L137.143 166.182H151.141V170.433H141.479L140.978 175.578H141.106C141.468 174.974 142.05 174.477 142.853 174.087C143.663 173.689 144.582 173.49 145.612 173.49C146.919 173.49 148.084 173.795 149.107 174.406C150.136 175.01 150.946 175.848 151.536 176.92C152.132 177.993 152.43 179.222 152.43 180.607C152.43 182.105 152.075 183.433 151.365 184.591C150.662 185.749 149.675 186.658 148.403 187.318C147.139 187.972 145.658 188.298 143.961 188.298Z" fill="white"/>
<circle cx="338.5" cy="176.5" r="17.5" fill="#1870D8"/>
<path d="M342.697 166.182V188H337.435V171.104H337.307L332.428 174.087V169.527L337.808 166.182H342.697Z" fill="white"/>
<circle cx="144.5" cy="129.5" r="17.5" fill="black"/>
<path d="M136.609 140V136.207L144.567 129.24C145.163 128.7 145.671 128.207 146.09 127.759C146.509 127.305 146.829 126.85 147.049 126.396C147.269 125.934 147.379 125.433 147.379 124.893C147.379 124.29 147.248 123.775 146.985 123.349C146.722 122.915 146.36 122.582 145.898 122.347C145.437 122.113 144.908 121.996 144.311 121.996C143.707 121.996 143.178 122.12 142.724 122.369C142.269 122.61 141.914 122.962 141.658 123.423C141.41 123.885 141.286 124.446 141.286 125.107H136.289C136.289 123.622 136.623 122.34 137.29 121.261C137.958 120.181 138.896 119.35 140.103 118.768C141.317 118.178 142.727 117.884 144.332 117.884C145.987 117.884 147.425 118.161 148.647 118.714C149.869 119.268 150.813 120.043 151.481 121.037C152.156 122.024 152.493 123.171 152.493 124.478C152.493 125.309 152.326 126.133 151.992 126.95C151.658 127.766 151.058 128.668 150.192 129.656C149.332 130.643 148.111 131.825 146.527 133.203L143.917 135.611V135.749H152.759V140H136.609Z" fill="white"/>
<circle cx="338.5" cy="128.5" r="17.5" fill="black"/>
<path d="M337.908 140.298C336.246 140.298 334.772 140.014 333.487 139.446C332.208 138.871 331.2 138.079 330.461 137.07C329.722 136.062 329.346 134.901 329.332 133.587H334.637C334.658 134.062 334.811 134.485 335.095 134.854C335.379 135.217 335.766 135.501 336.256 135.707C336.746 135.913 337.304 136.016 337.929 136.016C338.554 136.016 339.104 135.906 339.58 135.685C340.063 135.458 340.44 135.149 340.71 134.759C340.979 134.361 341.111 133.906 341.104 133.395C341.111 132.884 340.965 132.429 340.667 132.031C340.369 131.634 339.946 131.325 339.399 131.104C338.859 130.884 338.22 130.774 337.482 130.774H335.362V127.024H337.482C338.128 127.024 338.696 126.918 339.186 126.705C339.683 126.491 340.07 126.193 340.347 125.81C340.624 125.419 340.759 124.972 340.752 124.467C340.759 123.977 340.642 123.548 340.401 123.178C340.166 122.802 339.836 122.511 339.41 122.305C338.991 122.099 338.504 121.996 337.95 121.996C337.368 121.996 336.839 122.099 336.363 122.305C335.894 122.511 335.521 122.802 335.244 123.178C334.967 123.555 334.822 123.991 334.808 124.489H329.768C329.783 123.189 330.145 122.045 330.855 121.058C331.565 120.064 332.531 119.286 333.753 118.725C334.982 118.164 336.381 117.884 337.95 117.884C339.513 117.884 340.887 118.157 342.073 118.704C343.259 119.251 344.183 119.996 344.843 120.941C345.504 121.879 345.834 122.94 345.834 124.126C345.841 125.355 345.44 126.367 344.63 127.163C343.827 127.958 342.794 128.448 341.53 128.633V128.803C343.22 129.002 344.495 129.549 345.354 130.444C346.221 131.339 346.651 132.457 346.643 133.8C346.643 135.064 346.271 136.186 345.525 137.166C344.786 138.139 343.756 138.906 342.435 139.467C341.121 140.021 339.612 140.298 337.908 140.298Z" fill="white"/>
<circle cx="144.5" cy="83.5" r="17.5" fill="black"/>
<path d="M134.342 90.3778V86.2656L143.281 72.1818H146.935V77.7642H144.815L139.584 86.0526V86.223H152.528V90.3778H134.342ZM144.879 94V89.1207L144.985 87.3203V72.1818H149.918V94H144.879Z" fill="white"/>
<circle cx="435.5" cy="81.5" r="17.5" fill="black"/>
<path d="M434.961 93.2983C433.37 93.2983 431.957 93.0107 430.721 92.4354C429.485 91.8601 428.509 91.0682 427.791 90.0597C427.081 89.0511 426.712 87.8935 426.683 86.5866H431.797C431.839 87.3892 432.166 88.0355 432.777 88.5256C433.388 89.0085 434.116 89.25 434.961 89.25C435.621 89.25 436.207 89.1044 436.719 88.8132C437.23 88.522 437.631 88.1136 437.923 87.5881C438.214 87.0554 438.356 86.4446 438.349 85.7557C438.356 85.0526 438.21 84.4382 437.912 83.9126C437.621 83.3871 437.216 82.9787 436.697 82.6875C436.186 82.3892 435.597 82.2401 434.929 82.2401C434.297 82.233 433.697 82.3714 433.129 82.6555C432.567 82.9396 432.141 83.3267 431.85 83.8168L427.195 82.9432L428.143 71.1818H442.141V75.4325H432.479L431.978 80.5781H432.106C432.468 79.9744 433.05 79.4773 433.853 79.0866C434.663 78.6889 435.582 78.4901 436.612 78.4901C437.919 78.4901 439.084 78.7955 440.107 79.4062C441.136 80.0099 441.946 80.848 442.536 81.9205C443.132 82.9929 443.43 84.2216 443.43 85.6065C443.43 87.1051 443.075 88.4332 442.365 89.5909C441.662 90.7486 440.675 91.6577 439.403 92.3182C438.139 92.9716 436.658 93.2983 434.961 93.2983Z" fill="white"/>
<circle cx="144.5" cy="34.5" r="17.5" fill="#1870D8"/>
<path d="M148.697 24.1818V46H143.435V29.1037H143.307L138.428 32.0866V27.527L143.808 24.1818H148.697Z" fill="white"/>
<circle cx="435.5" cy="35.5" r="17.5" fill="black"/>
<path d="M427.609 46V42.2074L435.567 35.2401C436.163 34.7003 436.671 34.2067 437.09 33.7592C437.509 33.3047 437.829 32.8501 438.049 32.3956C438.269 31.9339 438.379 31.4332 438.379 30.8935C438.379 30.2898 438.248 29.7749 437.985 29.3487C437.722 28.9155 437.36 28.5817 436.898 28.3473C436.437 28.1129 435.908 27.9957 435.311 27.9957C434.707 27.9957 434.178 28.12 433.724 28.3686C433.269 28.6101 432.914 28.9616 432.658 29.4233C432.41 29.8849 432.286 30.446 432.286 31.1065H427.289C427.289 29.6222 427.623 28.3402 428.29 27.2607C428.958 26.1811 429.896 25.3501 431.103 24.7678C432.317 24.1783 433.727 23.8835 435.332 23.8835C436.987 23.8835 438.425 24.1605 439.647 24.7145C440.869 25.2685 441.813 26.0426 442.481 27.0369C443.156 28.0241 443.493 29.1712 443.493 30.478C443.493 31.3089 443.326 32.1328 442.992 32.9496C442.658 33.7663 442.058 34.6683 441.192 35.6555C440.332 36.6428 439.111 37.8253 437.527 39.2031L434.917 41.6108V41.7493H443.759V46H427.609Z" fill="white"/>
</svg>
