<svg width="578" height="343" viewBox="0 0 578 343" fill="none" xmlns="http://www.w3.org/2000/svg">
<rect width="578" height="343" rx="17" fill="white"/>
<path d="M144.926 332.398C142.975 332.398 141.233 332.062 139.699 331.389C138.174 330.717 136.967 329.784 136.077 328.591C135.196 327.388 134.723 325.996 134.656 324.415H139.116C139.173 325.277 139.462 326.025 139.983 326.659C140.513 327.284 141.205 327.767 142.057 328.108C142.909 328.449 143.856 328.619 144.898 328.619C146.044 328.619 147.057 328.42 147.938 328.023C148.828 327.625 149.524 327.071 150.026 326.361C150.527 325.641 150.778 324.812 150.778 323.875C150.778 322.9 150.527 322.043 150.026 321.304C149.533 320.556 148.809 319.969 147.852 319.543C146.905 319.116 145.759 318.903 144.415 318.903H141.957V315.324H144.415C145.494 315.324 146.441 315.13 147.256 314.741C148.08 314.353 148.723 313.813 149.188 313.122C149.652 312.421 149.884 311.602 149.884 310.665C149.884 309.765 149.68 308.984 149.273 308.321C148.875 307.649 148.307 307.123 147.568 306.744C146.839 306.366 145.977 306.176 144.983 306.176C144.036 306.176 143.151 306.351 142.327 306.702C141.512 307.043 140.849 307.535 140.338 308.179C139.827 308.813 139.552 309.576 139.514 310.466H135.267C135.314 308.894 135.778 307.511 136.659 306.318C137.549 305.125 138.723 304.192 140.182 303.52C141.64 302.848 143.259 302.511 145.04 302.511C146.905 302.511 148.515 302.876 149.869 303.605C151.233 304.325 152.284 305.286 153.023 306.489C153.771 307.691 154.14 309.008 154.131 310.438C154.14 312.066 153.686 313.449 152.767 314.585C151.858 315.722 150.646 316.484 149.131 316.872V317.099C151.063 317.393 152.559 318.16 153.619 319.401C154.689 320.641 155.22 322.18 155.21 324.017C155.22 325.617 154.775 327.052 153.875 328.321C152.985 329.59 151.768 330.589 150.224 331.318C148.681 332.038 146.915 332.398 144.926 332.398Z" fill="black"/>
<path d="M9.15527e-05 23H578V285H9.15527e-05V23Z" fill="#EDC18D"/>
<line x1="95.4258" y1="23" x2="95.4258" y2="285" stroke="#7A7474" stroke-width="8"/>
<line x1="192.51" y1="23" x2="192.51" y2="285" stroke="#7A7474" stroke-width="8"/>
<line x1="483.761" y1="23" x2="483.761" y2="285" stroke="#7A7474" stroke-width="8"/>
<line x1="386.677" y1="23" x2="386.677" y2="285" stroke="#7A7474" stroke-width="8"/>
<line x1="289.594" y1="23" x2="289.594" y2="285" stroke="#7A7474" stroke-width="8"/>
<circle cx="143.755" cy="153.755" r="15.7548" fill="#CFC3BA"/>
<circle cx="337.923" cy="153.755" r="15.7548" fill="#CFC3BA"/>
<circle cx="531.755" cy="153.755" r="15.7548" fill="#CFC3BA"/>
<line x1="2.62268e-07" y1="272" x2="578" y2="272" stroke="white" stroke-width="6"/>
<line x1="2.18557e-07" y1="224.5" x2="578" y2="224.5" stroke="white" stroke-width="5"/>
<line x1="1.74846e-07" y1="177" x2="578" y2="177" stroke="white" stroke-width="4"/>
<line x1="1.31134e-07" y1="129.5" x2="578" y2="129.5" stroke="white" stroke-width="3"/>
<line x1="8.74228e-08" y1="82" x2="578" y2="82.0001" stroke="white" stroke-width="2"/>
<line x1="1" y1="34.5" x2="577" y2="34.5" stroke="white"/>
<circle cx="144.5" cy="271.5" r="17.5" fill="#1870D8"/>
<path d="M148.697 261.182V283H143.435V266.104H143.307L138.428 269.087V264.527L143.808 261.182H148.697Z" fill="white"/>
<circle cx="436.5" cy="272.5" r="17.5" fill="black"/>
<path d="M428.609 283V279.207L436.567 272.24C437.163 271.7 437.671 271.207 438.09 270.759C438.509 270.305 438.829 269.85 439.049 269.396C439.269 268.934 439.379 268.433 439.379 267.893C439.379 267.29 439.248 266.775 438.985 266.349C438.722 265.915 438.36 265.582 437.898 265.347C437.437 265.113 436.908 264.996 436.311 264.996C435.707 264.996 435.178 265.12 434.724 265.369C434.269 265.61 433.914 265.962 433.658 266.423C433.41 266.885 433.286 267.446 433.286 268.107H428.289C428.289 266.622 428.623 265.34 429.29 264.261C429.958 263.181 430.896 262.35 432.103 261.768C433.317 261.178 434.727 260.884 436.332 260.884C437.987 260.884 439.425 261.161 440.647 261.714C441.869 262.268 442.813 263.043 443.481 264.037C444.156 265.024 444.493 266.171 444.493 267.478C444.493 268.309 444.326 269.133 443.992 269.95C443.658 270.766 443.058 271.668 442.192 272.656C441.332 273.643 440.111 274.825 438.527 276.203L435.917 278.611V278.749H444.759V283H428.609Z" fill="white"/>
<circle cx="144.5" cy="224.5" r="17.5" fill="black"/>
<path d="M143.908 236.298C142.246 236.298 140.772 236.014 139.487 235.446C138.208 234.871 137.2 234.079 136.461 233.07C135.722 232.062 135.346 230.901 135.332 229.587H140.637C140.658 230.062 140.811 230.485 141.095 230.854C141.379 231.217 141.766 231.501 142.256 231.707C142.746 231.913 143.304 232.016 143.929 232.016C144.554 232.016 145.104 231.906 145.58 231.685C146.063 231.458 146.44 231.149 146.71 230.759C146.979 230.361 147.111 229.906 147.104 229.395C147.111 228.884 146.965 228.429 146.667 228.031C146.369 227.634 145.946 227.325 145.399 227.104C144.859 226.884 144.22 226.774 143.482 226.774H141.362V223.024H143.482C144.128 223.024 144.696 222.918 145.186 222.705C145.683 222.491 146.07 222.193 146.347 221.81C146.624 221.419 146.759 220.972 146.752 220.467C146.759 219.977 146.642 219.548 146.401 219.178C146.166 218.802 145.836 218.511 145.41 218.305C144.991 218.099 144.504 217.996 143.95 217.996C143.368 217.996 142.839 218.099 142.363 218.305C141.894 218.511 141.521 218.802 141.244 219.178C140.967 219.555 140.822 219.991 140.808 220.489H135.768C135.783 219.189 136.145 218.045 136.855 217.058C137.565 216.064 138.531 215.286 139.753 214.725C140.982 214.164 142.381 213.884 143.95 213.884C145.513 213.884 146.887 214.157 148.073 214.704C149.259 215.251 150.183 215.996 150.843 216.941C151.504 217.879 151.834 218.94 151.834 220.126C151.841 221.355 151.44 222.367 150.63 223.163C149.827 223.958 148.794 224.448 147.53 224.633V224.803C149.22 225.002 150.495 225.549 151.354 226.444C152.221 227.339 152.651 228.457 152.643 229.8C152.643 231.064 152.271 232.186 151.525 233.166C150.786 234.139 149.756 234.906 148.435 235.467C147.121 236.021 145.612 236.298 143.908 236.298Z" fill="white"/>
<circle cx="241.5" cy="224.5" r="17.5" fill="black"/>
<path d="M231.342 231.378V227.266L240.281 213.182H243.935V218.764H241.815L236.584 227.053V227.223H249.528V231.378H231.342ZM241.879 235V230.121L241.985 228.32V213.182H246.918V235H241.879Z" fill="white"/>
<circle cx="338.5" cy="224.5" r="17.5" fill="black"/>
<path d="M337.961 236.298C336.37 236.298 334.957 236.011 333.721 235.435C332.485 234.86 331.509 234.068 330.791 233.06C330.081 232.051 329.712 230.893 329.683 229.587H334.797C334.839 230.389 335.166 231.036 335.777 231.526C336.388 232.009 337.116 232.25 337.961 232.25C338.621 232.25 339.207 232.104 339.719 231.813C340.23 231.522 340.631 231.114 340.923 230.588C341.214 230.055 341.356 229.445 341.349 228.756C341.356 228.053 341.21 227.438 340.912 226.913C340.621 226.387 340.216 225.979 339.697 225.688C339.186 225.389 338.597 225.24 337.929 225.24C337.297 225.233 336.697 225.371 336.129 225.656C335.567 225.94 335.141 226.327 334.85 226.817L330.195 225.943L331.143 214.182H345.141V218.433H335.479L334.978 223.578H335.106C335.468 222.974 336.05 222.477 336.853 222.087C337.663 221.689 338.582 221.49 339.612 221.49C340.919 221.49 342.084 221.795 343.107 222.406C344.136 223.01 344.946 223.848 345.536 224.92C346.132 225.993 346.43 227.222 346.43 228.607C346.43 230.105 346.075 231.433 345.365 232.591C344.662 233.749 343.675 234.658 342.403 235.318C341.139 235.972 339.658 236.298 337.961 236.298Z" fill="white"/>
<circle cx="144.5" cy="177.5" r="17.5" fill="black"/>
<path d="M144.355 188.298C143.162 188.298 142.018 188.107 140.925 187.723C139.831 187.332 138.858 186.714 138.006 185.869C137.153 185.017 136.482 183.902 135.992 182.524C135.502 181.139 135.261 179.452 135.268 177.464C135.275 175.667 135.495 174.055 135.928 172.627C136.362 171.192 136.979 169.974 137.782 168.973C138.592 167.972 139.558 167.208 140.68 166.683C141.809 166.15 143.07 165.884 144.462 165.884C145.989 165.884 147.335 166.182 148.499 166.778C149.671 167.368 150.609 168.163 151.312 169.165C152.015 170.159 152.43 171.267 152.558 172.489H147.37C147.214 171.8 146.869 171.278 146.337 170.923C145.811 170.56 145.186 170.379 144.462 170.379C143.126 170.379 142.129 170.958 141.468 172.116C140.815 173.273 140.481 174.822 140.467 176.761H140.605C140.903 176.107 141.333 175.546 141.894 175.077C142.455 174.609 143.098 174.25 143.822 174.001C144.554 173.746 145.328 173.618 146.145 173.618C147.452 173.618 148.606 173.92 149.607 174.523C150.609 175.127 151.393 175.955 151.962 177.006C152.53 178.05 152.81 179.246 152.803 180.596C152.81 182.116 152.455 183.458 151.738 184.623C151.021 185.781 150.026 186.683 148.755 187.329C147.491 187.975 146.024 188.298 144.355 188.298ZM144.323 184.25C144.969 184.25 145.548 184.097 146.06 183.792C146.571 183.487 146.972 183.071 147.263 182.545C147.555 182.02 147.697 181.427 147.69 180.766C147.697 180.099 147.555 179.506 147.263 178.987C146.979 178.469 146.582 178.057 146.07 177.751C145.566 177.446 144.987 177.293 144.334 177.293C143.858 177.293 143.414 177.382 143.002 177.56C142.59 177.737 142.232 177.986 141.926 178.305C141.628 178.618 141.393 178.987 141.223 179.413C141.053 179.832 140.964 180.287 140.957 180.777C140.964 181.423 141.113 182.009 141.404 182.535C141.695 183.06 142.093 183.479 142.597 183.792C143.102 184.097 143.677 184.25 144.323 184.25Z" fill="white"/>
<circle cx="338.5" cy="176.5" r="17.5" fill="#1870D8"/>
<path d="M342.697 166.182V188H337.435V171.104H337.307L332.428 174.087V169.527L337.808 166.182H342.697Z" fill="white"/>
<circle cx="144.5" cy="129.5" r="17.5" fill="black"/>
<path d="M136.609 140V136.207L144.567 129.24C145.163 128.7 145.671 128.207 146.09 127.759C146.509 127.305 146.829 126.85 147.049 126.396C147.269 125.934 147.379 125.433 147.379 124.893C147.379 124.29 147.248 123.775 146.985 123.349C146.722 122.915 146.36 122.582 145.898 122.347C145.437 122.113 144.908 121.996 144.311 121.996C143.707 121.996 143.178 122.12 142.724 122.369C142.269 122.61 141.914 122.962 141.658 123.423C141.41 123.885 141.286 124.446 141.286 125.107H136.289C136.289 123.622 136.623 122.34 137.29 121.261C137.958 120.181 138.896 119.35 140.103 118.768C141.317 118.178 142.727 117.884 144.332 117.884C145.987 117.884 147.425 118.161 148.647 118.714C149.869 119.268 150.813 120.043 151.481 121.037C152.156 122.024 152.493 123.171 152.493 124.478C152.493 125.309 152.326 126.133 151.992 126.95C151.658 127.766 151.058 128.668 150.192 129.656C149.332 130.643 148.111 131.825 146.527 133.203L143.917 135.611V135.749H152.759V140H136.609Z" fill="white"/>
<circle cx="338.5" cy="128.5" r="17.5" fill="black"/>
<path d="M337.908 140.298C336.246 140.298 334.772 140.014 333.487 139.446C332.208 138.871 331.2 138.079 330.461 137.07C329.722 136.062 329.346 134.901 329.332 133.587H334.637C334.658 134.062 334.811 134.485 335.095 134.854C335.379 135.217 335.766 135.501 336.256 135.707C336.746 135.913 337.304 136.016 337.929 136.016C338.554 136.016 339.104 135.906 339.58 135.685C340.063 135.458 340.44 135.149 340.71 134.759C340.979 134.361 341.111 133.906 341.104 133.395C341.111 132.884 340.965 132.429 340.667 132.031C340.369 131.634 339.946 131.325 339.399 131.104C338.859 130.884 338.22 130.774 337.482 130.774H335.362V127.024H337.482C338.128 127.024 338.696 126.918 339.186 126.705C339.683 126.491 340.07 126.193 340.347 125.81C340.624 125.419 340.759 124.972 340.752 124.467C340.759 123.977 340.642 123.548 340.401 123.178C340.166 122.802 339.836 122.511 339.41 122.305C338.991 122.099 338.504 121.996 337.95 121.996C337.368 121.996 336.839 122.099 336.363 122.305C335.894 122.511 335.521 122.802 335.244 123.178C334.967 123.555 334.822 123.991 334.808 124.489H329.768C329.783 123.189 330.145 122.045 330.855 121.058C331.565 120.064 332.531 119.286 333.753 118.725C334.982 118.164 336.381 117.884 337.95 117.884C339.513 117.884 340.887 118.157 342.073 118.704C343.259 119.251 344.183 119.996 344.843 120.941C345.504 121.879 345.834 122.94 345.834 124.126C345.841 125.355 345.44 126.367 344.63 127.163C343.827 127.958 342.794 128.448 341.53 128.633V128.803C343.22 129.002 344.495 129.549 345.354 130.444C346.221 131.339 346.651 132.457 346.643 133.8C346.643 135.064 346.271 136.186 345.525 137.166C344.786 138.139 343.756 138.906 342.435 139.467C341.121 140.021 339.612 140.298 337.908 140.298Z" fill="white"/>
<circle cx="436.5" cy="129.5" r="17.5" fill="black"/>
<path d="M426.342 136.378V132.266L435.281 118.182H438.935V123.764H436.815L431.584 132.053V132.223H444.528V136.378H426.342ZM436.879 140V135.121L436.985 133.32V118.182H441.918V140H436.879Z" fill="white"/>
<circle cx="144.5" cy="81.5" r="17.5" fill="black"/>
<path d="M143.961 93.2983C142.37 93.2983 140.957 93.0107 139.721 92.4354C138.485 91.8601 137.509 91.0682 136.791 90.0597C136.081 89.0511 135.712 87.8935 135.683 86.5866H140.797C140.839 87.3892 141.166 88.0355 141.777 88.5256C142.388 89.0085 143.116 89.25 143.961 89.25C144.621 89.25 145.207 89.1044 145.719 88.8132C146.23 88.522 146.631 88.1136 146.923 87.5881C147.214 87.0554 147.356 86.4446 147.349 85.7557C147.356 85.0526 147.21 84.4382 146.912 83.9126C146.621 83.3871 146.216 82.9787 145.697 82.6875C145.186 82.3892 144.597 82.2401 143.929 82.2401C143.297 82.233 142.697 82.3714 142.129 82.6555C141.567 82.9396 141.141 83.3267 140.85 83.8168L136.195 82.9432L137.143 71.1818H151.141V75.4325H141.479L140.978 80.5781H141.106C141.468 79.9744 142.05 79.4773 142.853 79.0866C143.663 78.6889 144.582 78.4901 145.612 78.4901C146.919 78.4901 148.084 78.7955 149.107 79.4062C150.136 80.0099 150.946 80.848 151.536 81.9205C152.132 82.9929 152.43 84.2216 152.43 85.6065C152.43 87.1051 152.075 88.4332 151.365 89.5909C150.662 90.7486 149.675 91.6577 148.403 92.3182C147.139 92.9716 145.658 93.2983 143.961 93.2983Z" fill="white"/>
<circle cx="436.5" cy="82.5" r="17.5" fill="black"/>
<path d="M436.355 93.2983C435.162 93.2983 434.018 93.1065 432.925 92.723C431.831 92.3324 430.858 91.7145 430.006 90.8693C429.153 90.017 428.482 88.902 427.992 87.5241C427.502 86.1392 427.261 84.4524 427.268 82.4638C427.275 80.6669 427.495 79.0547 427.928 77.6271C428.362 76.1925 428.979 74.9744 429.782 73.973C430.592 72.9716 431.558 72.2081 432.68 71.6825C433.809 71.1499 435.07 70.8835 436.462 70.8835C437.989 70.8835 439.335 71.1818 440.499 71.7784C441.671 72.3679 442.609 73.1634 443.312 74.1648C444.015 75.1591 444.43 76.267 444.558 77.4886H439.37C439.214 76.7997 438.869 76.2777 438.337 75.9226C437.811 75.5604 437.186 75.3793 436.462 75.3793C435.126 75.3793 434.129 75.9581 433.468 77.1158C432.815 78.2734 432.481 79.8217 432.467 81.7607H432.605C432.903 81.1072 433.333 80.5462 433.894 80.0774C434.455 79.6087 435.098 79.25 435.822 79.0014C436.554 78.7457 437.328 78.6179 438.145 78.6179C439.452 78.6179 440.606 78.9197 441.607 79.5234C442.609 80.1271 443.393 80.9545 443.962 82.0057C444.53 83.0497 444.81 84.2464 444.803 85.5959C444.81 87.1158 444.455 88.4581 443.738 89.6229C443.021 90.7805 442.026 91.6825 440.755 92.3288C439.491 92.9751 438.024 93.2983 436.355 93.2983ZM436.323 89.25C436.969 89.25 437.548 89.0973 438.06 88.7919C438.571 88.4865 438.972 88.071 439.263 87.5455C439.555 87.0199 439.697 86.4268 439.69 85.7663C439.697 85.0987 439.555 84.5057 439.263 83.9872C438.979 83.4687 438.582 83.0568 438.07 82.7514C437.566 82.446 436.987 82.2933 436.334 82.2933C435.858 82.2933 435.414 82.3821 435.002 82.5597C434.59 82.7372 434.232 82.9858 433.926 83.3054C433.628 83.6179 433.393 83.9872 433.223 84.4134C433.053 84.8324 432.964 85.2869 432.957 85.777C432.964 86.4233 433.113 87.0092 433.404 87.5348C433.695 88.0604 434.093 88.4794 434.597 88.7919C435.102 89.0973 435.677 89.25 436.323 89.25Z" fill="white"/>
<circle cx="144.5" cy="34.5" r="17.5" fill="#1870D8"/>
<path d="M148.697 24.1818V46H143.435V29.1037H143.307L138.428 32.0866V27.527L143.808 24.1818H148.697Z" fill="white"/>
<circle cx="436.5" cy="35.5" r="17.5" fill="black"/>
<path d="M428.609 46V42.2074L436.567 35.2401C437.163 34.7003 437.671 34.2067 438.09 33.7592C438.509 33.3047 438.829 32.8501 439.049 32.3956C439.269 31.9339 439.379 31.4332 439.379 30.8935C439.379 30.2898 439.248 29.7749 438.985 29.3487C438.722 28.9155 438.36 28.5817 437.898 28.3473C437.437 28.1129 436.908 27.9957 436.311 27.9957C435.707 27.9957 435.178 28.12 434.724 28.3686C434.269 28.6101 433.914 28.9616 433.658 29.4233C433.41 29.8849 433.286 30.446 433.286 31.1065H428.289C428.289 29.6222 428.623 28.3402 429.29 27.2607C429.958 26.1811 430.896 25.3501 432.103 24.7678C433.317 24.1783 434.727 23.8835 436.332 23.8835C437.987 23.8835 439.425 24.1605 440.647 24.7145C441.869 25.2685 442.813 26.0426 443.481 27.0369C444.156 28.0241 444.493 29.1712 444.493 30.478C444.493 31.3089 444.326 32.1328 443.992 32.9496C443.658 33.7663 443.058 34.6683 442.192 35.6555C441.332 36.6428 440.111 37.8253 438.527 39.2031L435.917 41.6108V41.7493H444.759V46H428.609Z" fill="white"/>
</svg>
