<svg width="578" height="343" viewBox="0 0 578 343" fill="none" xmlns="http://www.w3.org/2000/svg">
<rect width="578" height="343" rx="17" fill="white"/>
<path d="M242.926 332.398C240.975 332.398 239.233 332.062 237.699 331.389C236.174 330.717 234.967 329.784 234.077 328.591C233.196 327.388 232.723 325.996 232.656 324.415H237.116C237.173 325.277 237.462 326.025 237.983 326.659C238.513 327.284 239.205 327.767 240.057 328.108C240.909 328.449 241.856 328.619 242.898 328.619C244.044 328.619 245.057 328.42 245.938 328.023C246.828 327.625 247.524 327.071 248.026 326.361C248.527 325.641 248.778 324.812 248.778 323.875C248.778 322.9 248.527 322.043 248.026 321.304C247.533 320.556 246.809 319.969 245.852 319.543C244.905 319.116 243.759 318.903 242.415 318.903H239.957V315.324H242.415C243.494 315.324 244.441 315.13 245.256 314.741C246.08 314.353 246.723 313.813 247.188 313.122C247.652 312.421 247.884 311.602 247.884 310.665C247.884 309.765 247.68 308.984 247.273 308.321C246.875 307.649 246.307 307.123 245.568 306.744C244.839 306.366 243.977 306.176 242.983 306.176C242.036 306.176 241.151 306.351 240.327 306.702C239.512 307.043 238.849 307.535 238.338 308.179C237.827 308.813 237.552 309.576 237.514 310.466H233.267C233.314 308.894 233.778 307.511 234.659 306.318C235.549 305.125 236.723 304.192 238.182 303.52C239.64 302.848 241.259 302.511 243.04 302.511C244.905 302.511 246.515 302.876 247.869 303.605C249.233 304.325 250.284 305.286 251.023 306.489C251.771 307.691 252.14 309.008 252.131 310.438C252.14 312.066 251.686 313.449 250.767 314.585C249.858 315.722 248.646 316.484 247.131 316.872V317.099C249.063 317.393 250.559 318.16 251.619 319.401C252.689 320.641 253.22 322.18 253.21 324.017C253.22 325.617 252.775 327.052 251.875 328.321C250.985 329.59 249.768 330.589 248.224 331.318C246.681 332.038 244.915 332.398 242.926 332.398Z" fill="black"/>
<path d="M9.15527e-05 23H578V285H9.15527e-05V23Z" fill="#EDC18D"/>
<line x1="95.4258" y1="23" x2="95.4258" y2="285" stroke="#7A7474" stroke-width="8"/>
<line x1="192.51" y1="23" x2="192.51" y2="285" stroke="#7A7474" stroke-width="8"/>
<line x1="483.761" y1="23" x2="483.761" y2="285" stroke="#7A7474" stroke-width="8"/>
<line x1="386.677" y1="23" x2="386.677" y2="285" stroke="#7A7474" stroke-width="8"/>
<line x1="289.594" y1="23" x2="289.594" y2="285" stroke="#7A7474" stroke-width="8"/>
<circle cx="240.755" cy="152.755" r="15.7548" fill="#CFC3BA"/>
<circle cx="434.923" cy="152.755" r="15.7548" fill="#CFC3BA"/>
<line x1="2.62268e-07" y1="272" x2="578" y2="272" stroke="white" stroke-width="6"/>
<line x1="2.18557e-07" y1="224.5" x2="578" y2="224.5" stroke="white" stroke-width="5"/>
<line x1="1.74846e-07" y1="177" x2="578" y2="177" stroke="white" stroke-width="4"/>
<line x1="1.31134e-07" y1="129.5" x2="578" y2="129.5" stroke="white" stroke-width="3"/>
<line x1="8.74228e-08" y1="82" x2="578" y2="82.0001" stroke="white" stroke-width="2"/>
<line x1="1" y1="34.5" x2="577" y2="34.5" stroke="white"/>
<circle cx="241.5" cy="271.5" r="17.5" fill="#1870D8"/>
<path d="M245.697 261.182V283H240.435V266.104H240.307L235.428 269.087V264.527L240.808 261.182H245.697Z" fill="white"/>
<circle cx="435.5" cy="271.5" r="17.5" fill="black"/>
<path d="M427.609 282V278.207L435.567 271.24C436.163 270.7 436.671 270.207 437.09 269.759C437.509 269.305 437.829 268.85 438.049 268.396C438.269 267.934 438.379 267.433 438.379 266.893C438.379 266.29 438.248 265.775 437.985 265.349C437.722 264.915 437.36 264.582 436.898 264.347C436.437 264.113 435.908 263.996 435.311 263.996C434.707 263.996 434.178 264.12 433.724 264.369C433.269 264.61 432.914 264.962 432.658 265.423C432.41 265.885 432.286 266.446 432.286 267.107H427.289C427.289 265.622 427.623 264.34 428.29 263.261C428.958 262.181 429.896 261.35 431.103 260.768C432.317 260.178 433.727 259.884 435.332 259.884C436.987 259.884 438.425 260.161 439.647 260.714C440.869 261.268 441.813 262.043 442.481 263.037C443.156 264.024 443.493 265.171 443.493 266.478C443.493 267.309 443.326 268.133 442.992 268.95C442.658 269.766 442.058 270.668 441.192 271.656C440.332 272.643 439.111 273.825 437.527 275.203L434.917 277.611V277.749H443.759V282H427.609Z" fill="white"/>
<circle cx="144.5" cy="224.5" r="17.5" fill="black"/>
<path d="M143.908 236.298C142.246 236.298 140.772 236.014 139.487 235.446C138.208 234.871 137.2 234.079 136.461 233.07C135.722 232.062 135.346 230.901 135.332 229.587H140.637C140.658 230.062 140.811 230.485 141.095 230.854C141.379 231.217 141.766 231.501 142.256 231.707C142.746 231.913 143.304 232.016 143.929 232.016C144.554 232.016 145.104 231.906 145.58 231.685C146.063 231.458 146.44 231.149 146.71 230.759C146.979 230.361 147.111 229.906 147.104 229.395C147.111 228.884 146.965 228.429 146.667 228.031C146.369 227.634 145.946 227.325 145.399 227.104C144.859 226.884 144.22 226.774 143.482 226.774H141.362V223.024H143.482C144.128 223.024 144.696 222.918 145.186 222.705C145.683 222.491 146.07 222.193 146.347 221.81C146.624 221.419 146.759 220.972 146.752 220.467C146.759 219.977 146.642 219.548 146.401 219.178C146.166 218.802 145.836 218.511 145.41 218.305C144.991 218.099 144.504 217.996 143.95 217.996C143.368 217.996 142.839 218.099 142.363 218.305C141.894 218.511 141.521 218.802 141.244 219.178C140.967 219.555 140.822 219.991 140.808 220.489H135.768C135.783 219.189 136.145 218.045 136.855 217.058C137.565 216.064 138.531 215.286 139.753 214.725C140.982 214.164 142.381 213.884 143.95 213.884C145.513 213.884 146.887 214.157 148.073 214.704C149.259 215.251 150.183 215.996 150.843 216.941C151.504 217.879 151.834 218.94 151.834 220.126C151.841 221.355 151.44 222.367 150.63 223.163C149.827 223.958 148.794 224.448 147.53 224.633V224.803C149.22 225.002 150.495 225.549 151.354 226.444C152.221 227.339 152.651 228.457 152.643 229.8C152.643 231.064 152.271 232.186 151.525 233.166C150.786 234.139 149.756 234.906 148.435 235.467C147.121 236.021 145.612 236.298 143.908 236.298Z" fill="white"/>
<circle cx="435.5" cy="224.5" r="17.5" fill="black"/>
<path d="M425.342 231.378V227.266L434.281 213.182H437.935V218.764H435.815L430.584 227.053V227.223H443.528V231.378H425.342ZM435.879 235V230.121L435.985 228.32V213.182H440.918V235H435.879Z" fill="white"/>
<circle cx="144.5" cy="175.5" r="17.5" fill="black"/>
<path d="M143.961 187.298C142.37 187.298 140.957 187.011 139.721 186.435C138.485 185.86 137.509 185.068 136.791 184.06C136.081 183.051 135.712 181.893 135.683 180.587H140.797C140.839 181.389 141.166 182.036 141.777 182.526C142.388 183.009 143.116 183.25 143.961 183.25C144.621 183.25 145.207 183.104 145.719 182.813C146.23 182.522 146.631 182.114 146.923 181.588C147.214 181.055 147.356 180.445 147.349 179.756C147.356 179.053 147.21 178.438 146.912 177.913C146.621 177.387 146.216 176.979 145.697 176.688C145.186 176.389 144.597 176.24 143.929 176.24C143.297 176.233 142.697 176.371 142.129 176.656C141.567 176.94 141.141 177.327 140.85 177.817L136.195 176.943L137.143 165.182H151.141V169.433H141.479L140.978 174.578H141.106C141.468 173.974 142.05 173.477 142.853 173.087C143.663 172.689 144.582 172.49 145.612 172.49C146.919 172.49 148.084 172.795 149.107 173.406C150.136 174.01 150.946 174.848 151.536 175.92C152.132 176.993 152.43 178.222 152.43 179.607C152.43 181.105 152.075 182.433 151.365 183.591C150.662 184.749 149.675 185.658 148.403 186.318C147.139 186.972 145.658 187.298 143.961 187.298Z" fill="white"/>
<circle cx="435.5" cy="176.5" r="17.5" fill="#1870D8"/>
<path d="M439.697 166.182V188H434.435V171.104H434.307L429.428 174.087V169.527L434.808 166.182H439.697Z" fill="white"/>
<circle cx="144.5" cy="128.5" r="17.5" fill="black"/>
<path d="M136.609 139V135.207L144.567 128.24C145.163 127.7 145.671 127.207 146.09 126.759C146.509 126.305 146.829 125.85 147.049 125.396C147.269 124.934 147.379 124.433 147.379 123.893C147.379 123.29 147.248 122.775 146.985 122.349C146.722 121.915 146.36 121.582 145.898 121.347C145.437 121.113 144.908 120.996 144.311 120.996C143.707 120.996 143.178 121.12 142.724 121.369C142.269 121.61 141.914 121.962 141.658 122.423C141.41 122.885 141.286 123.446 141.286 124.107H136.289C136.289 122.622 136.623 121.34 137.29 120.261C137.958 119.181 138.896 118.35 140.103 117.768C141.317 117.178 142.727 116.884 144.332 116.884C145.987 116.884 147.425 117.161 148.647 117.714C149.869 118.268 150.813 119.043 151.481 120.037C152.156 121.024 152.493 122.171 152.493 123.478C152.493 124.309 152.326 125.133 151.992 125.95C151.658 126.766 151.058 127.668 150.192 128.656C149.332 129.643 148.111 130.825 146.527 132.203L143.917 134.611V134.749H152.759V139H136.609Z" fill="white"/>
<circle cx="338.5" cy="128.5" r="17.5" fill="black"/>
<path d="M337.908 140.298C336.246 140.298 334.772 140.014 333.487 139.446C332.208 138.871 331.2 138.079 330.461 137.07C329.722 136.062 329.346 134.901 329.332 133.587H334.637C334.658 134.062 334.811 134.485 335.095 134.854C335.379 135.217 335.766 135.501 336.256 135.707C336.746 135.913 337.304 136.016 337.929 136.016C338.554 136.016 339.104 135.906 339.58 135.685C340.063 135.458 340.44 135.149 340.71 134.759C340.979 134.361 341.111 133.906 341.104 133.395C341.111 132.884 340.965 132.429 340.667 132.031C340.369 131.634 339.946 131.325 339.399 131.104C338.859 130.884 338.22 130.774 337.482 130.774H335.362V127.024H337.482C338.128 127.024 338.696 126.918 339.186 126.705C339.683 126.491 340.07 126.193 340.347 125.81C340.624 125.419 340.759 124.972 340.752 124.467C340.759 123.977 340.642 123.548 340.401 123.178C340.166 122.802 339.836 122.511 339.41 122.305C338.991 122.099 338.504 121.996 337.95 121.996C337.368 121.996 336.839 122.099 336.363 122.305C335.894 122.511 335.521 122.802 335.244 123.178C334.967 123.555 334.822 123.991 334.808 124.489H329.768C329.783 123.189 330.145 122.045 330.855 121.058C331.565 120.064 332.531 119.286 333.753 118.725C334.982 118.164 336.381 117.884 337.95 117.884C339.513 117.884 340.887 118.157 342.073 118.704C343.259 119.251 344.183 119.996 344.843 120.941C345.504 121.879 345.834 122.94 345.834 124.126C345.841 125.355 345.44 126.367 344.63 127.163C343.827 127.958 342.794 128.448 341.53 128.633V128.803C343.22 129.002 344.495 129.549 345.354 130.444C346.221 131.339 346.651 132.457 346.643 133.8C346.643 135.064 346.271 136.186 345.525 137.166C344.786 138.139 343.756 138.906 342.435 139.467C341.121 140.021 339.612 140.298 337.908 140.298Z" fill="white"/>
<circle cx="241.5" cy="80.5" r="17.5" fill="black"/>
<path d="M231.342 87.3778V83.2656L240.281 69.1818H243.935V74.7642H241.815L236.584 83.0526V83.223H249.528V87.3778H231.342ZM241.879 91V86.1207L241.985 84.3203V69.1818H246.918V91H241.879Z" fill="white"/>
<circle cx="435.5" cy="80.5" r="17.5" fill="black"/>
<path d="M434.961 92.2983C433.37 92.2983 431.957 92.0107 430.721 91.4354C429.485 90.8601 428.509 90.0682 427.791 89.0597C427.081 88.0511 426.712 86.8935 426.683 85.5866H431.797C431.839 86.3892 432.166 87.0355 432.777 87.5256C433.388 88.0085 434.116 88.25 434.961 88.25C435.621 88.25 436.207 88.1044 436.719 87.8132C437.23 87.522 437.631 87.1136 437.923 86.5881C438.214 86.0554 438.356 85.4446 438.349 84.7557C438.356 84.0526 438.21 83.4382 437.912 82.9126C437.621 82.3871 437.216 81.9787 436.697 81.6875C436.186 81.3892 435.597 81.2401 434.929 81.2401C434.297 81.233 433.697 81.3714 433.129 81.6555C432.567 81.9396 432.141 82.3267 431.85 82.8168L427.195 81.9432L428.143 70.1818H442.141V74.4325H432.479L431.978 79.5781H432.106C432.468 78.9744 433.05 78.4773 433.853 78.0866C434.663 77.6889 435.582 77.4901 436.612 77.4901C437.919 77.4901 439.084 77.7955 440.107 78.4062C441.136 79.0099 441.946 79.848 442.536 80.9205C443.132 81.9929 443.43 83.2216 443.43 84.6065C443.43 86.1051 443.075 87.4332 442.365 88.5909C441.662 89.7486 440.675 90.6577 439.403 91.3182C438.139 91.9716 436.658 92.2983 434.961 92.2983Z" fill="white"/>
<circle cx="241.5" cy="32.5" r="17.5" fill="#1870D8"/>
<path d="M245.697 22.1818V44H240.435V27.1037H240.307L235.428 30.0866V25.527L240.808 22.1818H245.697Z" fill="white"/>
<circle cx="435.5" cy="32.5" r="17.5" fill="black"/>
<path d="M427.609 43V39.2074L435.567 32.2401C436.163 31.7003 436.671 31.2067 437.09 30.7592C437.509 30.3047 437.829 29.8501 438.049 29.3956C438.269 28.9339 438.379 28.4332 438.379 27.8935C438.379 27.2898 438.248 26.7749 437.985 26.3487C437.722 25.9155 437.36 25.5817 436.898 25.3473C436.437 25.1129 435.908 24.9957 435.311 24.9957C434.707 24.9957 434.178 25.12 433.724 25.3686C433.269 25.6101 432.914 25.9616 432.658 26.4233C432.41 26.8849 432.286 27.446 432.286 28.1065H427.289C427.289 26.6222 427.623 25.3402 428.29 24.2607C428.958 23.1811 429.896 22.3501 431.103 21.7678C432.317 21.1783 433.727 20.8835 435.332 20.8835C436.987 20.8835 438.425 21.1605 439.647 21.7145C440.869 22.2685 441.813 23.0426 442.481 24.0369C443.156 25.0241 443.493 26.1712 443.493 27.478C443.493 28.3089 443.326 29.1328 442.992 29.9496C442.658 30.7663 442.058 31.6683 441.192 32.6555C440.332 33.6428 439.111 34.8253 437.527 36.2031L434.917 38.6108V38.7493H443.759V43H427.609Z" fill="white"/>
</svg>
