<svg width="578" height="343" viewBox="0 0 578 343" fill="none" xmlns="http://www.w3.org/2000/svg">
<rect width="578" height="343" rx="17" fill="white"/>
<path d="M144.926 332.398C142.975 332.398 141.233 332.062 139.699 331.389C138.174 330.717 136.967 329.784 136.077 328.591C135.196 327.388 134.723 325.996 134.656 324.415H139.116C139.173 325.277 139.462 326.025 139.983 326.659C140.513 327.284 141.205 327.767 142.057 328.108C142.909 328.449 143.856 328.619 144.898 328.619C146.044 328.619 147.057 328.42 147.938 328.023C148.828 327.625 149.524 327.071 150.026 326.361C150.527 325.641 150.778 324.812 150.778 323.875C150.778 322.9 150.527 322.043 150.026 321.304C149.533 320.556 148.809 319.969 147.852 319.543C146.905 319.116 145.759 318.903 144.415 318.903H141.957V315.324H144.415C145.494 315.324 146.441 315.13 147.256 314.741C148.08 314.353 148.723 313.813 149.188 313.122C149.652 312.421 149.884 311.602 149.884 310.665C149.884 309.765 149.68 308.984 149.273 308.321C148.875 307.649 148.307 307.123 147.568 306.744C146.839 306.366 145.977 306.176 144.983 306.176C144.036 306.176 143.151 306.351 142.327 306.702C141.512 307.043 140.849 307.535 140.338 308.179C139.827 308.813 139.552 309.576 139.514 310.466H135.267C135.314 308.894 135.778 307.511 136.659 306.318C137.549 305.125 138.723 304.192 140.182 303.52C141.64 302.848 143.259 302.511 145.04 302.511C146.905 302.511 148.515 302.876 149.869 303.605C151.233 304.325 152.284 305.286 153.023 306.489C153.771 307.691 154.14 309.008 154.131 310.438C154.14 312.066 153.686 313.449 152.767 314.585C151.858 315.722 150.646 316.484 149.131 316.872V317.099C151.063 317.393 152.559 318.16 153.619 319.401C154.689 320.641 155.22 322.18 155.21 324.017C155.22 325.617 154.775 327.052 153.875 328.321C152.985 329.59 151.768 330.589 150.224 331.318C148.681 332.038 146.915 332.398 144.926 332.398Z" fill="black"/>
<path d="M9.15527e-05 23H578V285H9.15527e-05V23Z" fill="#EDC18D"/>
<line x1="95.4258" y1="23" x2="95.4258" y2="285" stroke="#7A7474" stroke-width="8"/>
<line x1="192.51" y1="23" x2="192.51" y2="285" stroke="#7A7474" stroke-width="8"/>
<line x1="483.761" y1="23" x2="483.761" y2="285" stroke="#7A7474" stroke-width="8"/>
<line x1="386.677" y1="23" x2="386.677" y2="285" stroke="#7A7474" stroke-width="8"/>
<line x1="289.594" y1="23" x2="289.594" y2="285" stroke="#7A7474" stroke-width="8"/>
<circle cx="143.755" cy="153.755" r="15.7548" fill="#CFC3BA"/>
<circle cx="337.923" cy="153.755" r="15.7548" fill="#CFC3BA"/>
<circle cx="531.755" cy="153.755" r="15.7548" fill="#CFC3BA"/>
<line x1="2.62268e-07" y1="272" x2="578" y2="272" stroke="white" stroke-width="6"/>
<line x1="2.18557e-07" y1="224.5" x2="578" y2="224.5" stroke="white" stroke-width="5"/>
<line x1="1.74846e-07" y1="177" x2="578" y2="177" stroke="white" stroke-width="4"/>
<line x1="1.31134e-07" y1="129.5" x2="578" y2="129.5" stroke="white" stroke-width="3"/>
<line x1="8.74228e-08" y1="82" x2="578" y2="82.0001" stroke="white" stroke-width="2"/>
<line x1="1" y1="34.5" x2="577" y2="34.5" stroke="white"/>
<circle cx="144.5" cy="271.5" r="17.5" fill="#1870D8"/>
<path d="M148.697 261.182V283H143.435V266.104H143.307L138.428 269.087V264.527L143.808 261.182H148.697Z" fill="white"/>
<circle cx="338.5" cy="271.5" r="17.5" fill="black"/>
<path d="M330.609 282V278.207L338.567 271.24C339.163 270.7 339.671 270.207 340.09 269.759C340.509 269.305 340.829 268.85 341.049 268.396C341.269 267.934 341.379 267.433 341.379 266.893C341.379 266.29 341.248 265.775 340.985 265.349C340.722 264.915 340.36 264.582 339.898 264.347C339.437 264.113 338.908 263.996 338.311 263.996C337.707 263.996 337.178 264.12 336.724 264.369C336.269 264.61 335.914 264.962 335.658 265.423C335.41 265.885 335.286 266.446 335.286 267.107H330.289C330.289 265.622 330.623 264.34 331.29 263.261C331.958 262.181 332.896 261.35 334.103 260.768C335.317 260.178 336.727 259.884 338.332 259.884C339.987 259.884 341.425 260.161 342.647 260.714C343.869 261.268 344.813 262.043 345.481 263.037C346.156 264.024 346.493 265.171 346.493 266.478C346.493 267.309 346.326 268.133 345.992 268.95C345.658 269.766 345.058 270.668 344.192 271.656C343.332 272.643 342.111 273.825 340.527 275.203L337.917 277.611V277.749H346.759V282H330.609Z" fill="white"/>
<circle cx="436.5" cy="272.5" r="17.5" fill="black"/>
<path d="M435.908 284.298C434.246 284.298 432.772 284.014 431.487 283.446C430.208 282.871 429.2 282.079 428.461 281.07C427.722 280.062 427.346 278.901 427.332 277.587H432.637C432.658 278.062 432.811 278.485 433.095 278.854C433.379 279.217 433.766 279.501 434.256 279.707C434.746 279.913 435.304 280.016 435.929 280.016C436.554 280.016 437.104 279.906 437.58 279.685C438.063 279.458 438.44 279.149 438.71 278.759C438.979 278.361 439.111 277.906 439.104 277.395C439.111 276.884 438.965 276.429 438.667 276.031C438.369 275.634 437.946 275.325 437.399 275.104C436.859 274.884 436.22 274.774 435.482 274.774H433.362V271.024H435.482C436.128 271.024 436.696 270.918 437.186 270.705C437.683 270.491 438.07 270.193 438.347 269.81C438.624 269.419 438.759 268.972 438.752 268.467C438.759 267.977 438.642 267.548 438.401 267.178C438.166 266.802 437.836 266.511 437.41 266.305C436.991 266.099 436.504 265.996 435.95 265.996C435.368 265.996 434.839 266.099 434.363 266.305C433.894 266.511 433.521 266.802 433.244 267.178C432.967 267.555 432.822 267.991 432.808 268.489H427.768C427.783 267.189 428.145 266.045 428.855 265.058C429.565 264.064 430.531 263.286 431.753 262.725C432.982 262.164 434.381 261.884 435.95 261.884C437.513 261.884 438.887 262.157 440.073 262.704C441.259 263.251 442.183 263.996 442.843 264.941C443.504 265.879 443.834 266.94 443.834 268.126C443.841 269.355 443.44 270.367 442.63 271.163C441.827 271.958 440.794 272.448 439.53 272.633V272.803C441.22 273.002 442.495 273.549 443.354 274.444C444.221 275.339 444.651 276.457 444.643 277.8C444.643 279.064 444.271 280.186 443.525 281.166C442.786 282.139 441.756 282.906 440.435 283.467C439.121 284.021 437.612 284.298 435.908 284.298Z" fill="white"/>
<circle cx="144.5" cy="225.5" r="17.5" fill="black"/>
<path d="M134.342 232.378V228.266L143.281 214.182H146.935V219.764H144.815L139.584 228.053V228.223H152.528V232.378H134.342ZM144.879 236V231.121L144.985 229.32V214.182H149.918V236H144.879Z" fill="white"/>
<circle cx="338.5" cy="224.5" r="17.5" fill="black"/>
<path d="M337.961 236.298C336.37 236.298 334.957 236.011 333.721 235.435C332.485 234.86 331.509 234.068 330.791 233.06C330.081 232.051 329.712 230.893 329.683 229.587H334.797C334.839 230.389 335.166 231.036 335.777 231.526C336.388 232.009 337.116 232.25 337.961 232.25C338.621 232.25 339.207 232.104 339.719 231.813C340.23 231.522 340.631 231.114 340.923 230.588C341.214 230.055 341.356 229.445 341.349 228.756C341.356 228.053 341.21 227.438 340.912 226.913C340.621 226.387 340.216 225.979 339.697 225.688C339.186 225.389 338.597 225.24 337.929 225.24C337.297 225.233 336.697 225.371 336.129 225.656C335.567 225.94 335.141 226.327 334.85 226.817L330.195 225.943L331.143 214.182H345.141V218.433H335.479L334.978 223.578H335.106C335.468 222.974 336.05 222.477 336.853 222.087C337.663 221.689 338.582 221.49 339.612 221.49C340.919 221.49 342.084 221.795 343.107 222.406C344.136 223.01 344.946 223.848 345.536 224.92C346.132 225.993 346.43 227.222 346.43 228.607C346.43 230.105 346.075 231.433 345.365 232.591C344.662 233.749 343.675 234.658 342.403 235.318C341.139 235.972 339.658 236.298 337.961 236.298Z" fill="white"/>
<circle cx="436.5" cy="224.5" r="17.5" fill="black"/>
<path d="M436.355 235.298C435.162 235.298 434.018 235.107 432.925 234.723C431.831 234.332 430.858 233.714 430.006 232.869C429.153 232.017 428.482 230.902 427.992 229.524C427.502 228.139 427.261 226.452 427.268 224.464C427.275 222.667 427.495 221.055 427.928 219.627C428.362 218.192 428.979 216.974 429.782 215.973C430.592 214.972 431.558 214.208 432.68 213.683C433.809 213.15 435.07 212.884 436.462 212.884C437.989 212.884 439.335 213.182 440.499 213.778C441.671 214.368 442.609 215.163 443.312 216.165C444.015 217.159 444.43 218.267 444.558 219.489H439.37C439.214 218.8 438.869 218.278 438.337 217.923C437.811 217.56 437.186 217.379 436.462 217.379C435.126 217.379 434.129 217.958 433.468 219.116C432.815 220.273 432.481 221.822 432.467 223.761H432.605C432.903 223.107 433.333 222.546 433.894 222.077C434.455 221.609 435.098 221.25 435.822 221.001C436.554 220.746 437.328 220.618 438.145 220.618C439.452 220.618 440.606 220.92 441.607 221.523C442.609 222.127 443.393 222.955 443.962 224.006C444.53 225.05 444.81 226.246 444.803 227.596C444.81 229.116 444.455 230.458 443.738 231.623C443.021 232.781 442.026 233.683 440.755 234.329C439.491 234.975 438.024 235.298 436.355 235.298ZM436.323 231.25C436.969 231.25 437.548 231.097 438.06 230.792C438.571 230.487 438.972 230.071 439.263 229.545C439.555 229.02 439.697 228.427 439.69 227.766C439.697 227.099 439.555 226.506 439.263 225.987C438.979 225.469 438.582 225.057 438.07 224.751C437.566 224.446 436.987 224.293 436.334 224.293C435.858 224.293 435.414 224.382 435.002 224.56C434.59 224.737 434.232 224.986 433.926 225.305C433.628 225.618 433.393 225.987 433.223 226.413C433.053 226.832 432.964 227.287 432.957 227.777C432.964 228.423 433.113 229.009 433.404 229.535C433.695 230.06 434.093 230.479 434.597 230.792C435.102 231.097 435.677 231.25 436.323 231.25Z" fill="white"/>
<circle cx="144.5" cy="175.5" r="17.5" fill="black"/>
<path d="M138.536 187L147.335 169.571V169.433H137.044V165.182H152.79V169.464L143.958 187H138.536Z" fill="white"/>
<circle cx="338.5" cy="176.5" r="17.5" fill="#1870D8"/>
<path d="M342.697 166.182V188H337.435V171.104H337.307L332.428 174.087V169.527L337.808 166.182H342.697Z" fill="white"/>
<circle cx="45.5" cy="128.5" r="17.5" fill="black"/>
<path d="M37.6087 139V135.207L45.5668 128.24C46.1634 127.7 46.6712 127.207 47.0902 126.759C47.5092 126.305 47.8288 125.85 48.049 125.396C48.2692 124.934 48.3793 124.433 48.3793 123.893C48.3793 123.29 48.2479 122.775 47.9851 122.349C47.7223 121.915 47.3601 121.582 46.8984 121.347C46.4368 121.113 45.9077 120.996 45.3111 120.996C44.7074 120.996 44.1783 121.12 43.7237 121.369C43.2692 121.61 42.9141 121.962 42.6584 122.423C42.4098 122.885 42.2855 123.446 42.2855 124.107H37.2891C37.2891 122.622 37.6229 121.34 38.2905 120.261C38.9581 119.181 39.8956 118.35 41.103 117.768C42.3175 117.178 43.7273 116.884 45.3324 116.884C46.9872 116.884 48.4254 117.161 49.647 117.714C50.8686 118.268 51.8132 119.043 52.4808 120.037C53.1555 121.024 53.4929 122.171 53.4929 123.478C53.4929 124.309 53.326 125.133 52.9922 125.95C52.6584 126.766 52.0582 127.668 51.1918 128.656C50.3324 129.643 49.1108 130.825 47.527 132.203L44.9169 134.611V134.749H53.7592V139H37.6087Z" fill="white"/>
<circle cx="144.5" cy="128.5" r="17.5" fill="black"/>
<path d="M143.908 140.298C142.246 140.298 140.772 140.014 139.487 139.446C138.208 138.871 137.2 138.079 136.461 137.07C135.722 136.062 135.346 134.901 135.332 133.587H140.637C140.658 134.062 140.811 134.485 141.095 134.854C141.379 135.217 141.766 135.501 142.256 135.707C142.746 135.913 143.304 136.016 143.929 136.016C144.554 136.016 145.104 135.906 145.58 135.685C146.063 135.458 146.44 135.149 146.71 134.759C146.979 134.361 147.111 133.906 147.104 133.395C147.111 132.884 146.965 132.429 146.667 132.031C146.369 131.634 145.946 131.325 145.399 131.104C144.859 130.884 144.22 130.774 143.482 130.774H141.362V127.024H143.482C144.128 127.024 144.696 126.918 145.186 126.705C145.683 126.491 146.07 126.193 146.347 125.81C146.624 125.419 146.759 124.972 146.752 124.467C146.759 123.977 146.642 123.548 146.401 123.178C146.166 122.802 145.836 122.511 145.41 122.305C144.991 122.099 144.504 121.996 143.95 121.996C143.368 121.996 142.839 122.099 142.363 122.305C141.894 122.511 141.521 122.802 141.244 123.178C140.967 123.555 140.822 123.991 140.808 124.489H135.768C135.783 123.189 136.145 122.045 136.855 121.058C137.565 120.064 138.531 119.286 139.753 118.725C140.982 118.164 142.381 117.884 143.95 117.884C145.513 117.884 146.887 118.157 148.073 118.704C149.259 119.251 150.183 119.996 150.843 120.941C151.504 121.879 151.834 122.94 151.834 124.126C151.841 125.355 151.44 126.367 150.63 127.163C149.827 127.958 148.794 128.448 147.53 128.633V128.803C149.22 129.002 150.495 129.549 151.354 130.444C152.221 131.339 152.651 132.457 152.643 133.8C152.643 135.064 152.271 136.186 151.525 137.166C150.786 138.139 149.756 138.906 148.435 139.467C147.121 140.021 145.612 140.298 143.908 140.298Z" fill="white"/>
<circle cx="338.5" cy="129.5" r="17.5" fill="black"/>
<path d="M328.342 136.378V132.266L337.281 118.182H340.935V123.764H338.815L333.584 132.053V132.223H346.528V136.378H328.342ZM338.879 140V135.121L338.985 133.32V118.182H343.918V140H338.879Z" fill="white"/>
<circle cx="144.5" cy="81.5" r="17.5" fill="black"/>
<path d="M143.961 93.2983C142.37 93.2983 140.957 93.0107 139.721 92.4354C138.485 91.8601 137.509 91.0682 136.791 90.0597C136.081 89.0511 135.712 87.8935 135.683 86.5866H140.797C140.839 87.3892 141.166 88.0355 141.777 88.5256C142.388 89.0085 143.116 89.25 143.961 89.25C144.621 89.25 145.207 89.1044 145.719 88.8132C146.23 88.522 146.631 88.1136 146.923 87.5881C147.214 87.0554 147.356 86.4446 147.349 85.7557C147.356 85.0526 147.21 84.4382 146.912 83.9126C146.621 83.3871 146.216 82.9787 145.697 82.6875C145.186 82.3892 144.597 82.2401 143.929 82.2401C143.297 82.233 142.697 82.3714 142.129 82.6555C141.567 82.9396 141.141 83.3267 140.85 83.8168L136.195 82.9432L137.143 71.1818H151.141V75.4325H141.479L140.978 80.5781H141.106C141.468 79.9744 142.05 79.4773 142.853 79.0866C143.663 78.6889 144.582 78.4901 145.612 78.4901C146.919 78.4901 148.084 78.7955 149.107 79.4062C150.136 80.0099 150.946 80.848 151.536 81.9205C152.132 82.9929 152.43 84.2216 152.43 85.6065C152.43 87.1051 152.075 88.4332 151.365 89.5909C150.662 90.7486 149.675 91.6577 148.403 92.3182C147.139 92.9716 145.658 93.2983 143.961 93.2983Z" fill="white"/>
<circle cx="241.5" cy="82.5" r="17.5" fill="black"/>
<path d="M241.355 93.2983C240.162 93.2983 239.018 93.1065 237.925 92.723C236.831 92.3324 235.858 91.7145 235.006 90.8693C234.153 90.017 233.482 88.902 232.992 87.5241C232.502 86.1392 232.261 84.4524 232.268 82.4638C232.275 80.6669 232.495 79.0547 232.928 77.6271C233.362 76.1925 233.979 74.9744 234.782 73.973C235.592 72.9716 236.558 72.2081 237.68 71.6825C238.809 71.1499 240.07 70.8835 241.462 70.8835C242.989 70.8835 244.335 71.1818 245.499 71.7784C246.671 72.3679 247.609 73.1634 248.312 74.1648C249.015 75.1591 249.43 76.267 249.558 77.4886H244.37C244.214 76.7997 243.869 76.2777 243.337 75.9226C242.811 75.5604 242.186 75.3793 241.462 75.3793C240.126 75.3793 239.129 75.9581 238.468 77.1158C237.815 78.2734 237.481 79.8217 237.467 81.7607H237.605C237.903 81.1072 238.333 80.5462 238.894 80.0774C239.455 79.6087 240.098 79.25 240.822 79.0014C241.554 78.7457 242.328 78.6179 243.145 78.6179C244.452 78.6179 245.606 78.9197 246.607 79.5234C247.609 80.1271 248.393 80.9545 248.962 82.0057C249.53 83.0497 249.81 84.2464 249.803 85.5959C249.81 87.1158 249.455 88.4581 248.738 89.6229C248.021 90.7805 247.026 91.6825 245.755 92.3288C244.491 92.9751 243.024 93.2983 241.355 93.2983ZM241.323 89.25C241.969 89.25 242.548 89.0973 243.06 88.7919C243.571 88.4865 243.972 88.071 244.263 87.5455C244.555 87.0199 244.697 86.4268 244.69 85.7663C244.697 85.0987 244.555 84.5057 244.263 83.9872C243.979 83.4687 243.582 83.0568 243.07 82.7514C242.566 82.446 241.987 82.2933 241.334 82.2933C240.858 82.2933 240.414 82.3821 240.002 82.5597C239.59 82.7372 239.232 82.9858 238.926 83.3054C238.628 83.6179 238.393 83.9872 238.223 84.4134C238.053 84.8324 237.964 85.2869 237.957 85.777C237.964 86.4233 238.113 87.0092 238.404 87.5348C238.695 88.0604 239.093 88.4794 239.597 88.7919C240.102 89.0973 240.677 89.25 241.323 89.25Z" fill="white"/>
<circle cx="435.5" cy="81.5" r="17.5" fill="black"/>
<path d="M429.536 93L438.335 75.571V75.4325H428.044V71.1818H443.79V75.4645L434.958 93H429.536Z" fill="white"/>
<circle cx="144.5" cy="34.5" r="17.5" fill="#1870D8"/>
<path d="M148.697 24.1818V46H143.435V29.1037H143.307L138.428 32.0866V27.527L143.808 24.1818H148.697Z" fill="white"/>
<circle cx="338.5" cy="34.5" r="17.5" fill="black"/>
<path d="M330.609 45V41.2074L338.567 34.2401C339.163 33.7003 339.671 33.2067 340.09 32.7592C340.509 32.3047 340.829 31.8501 341.049 31.3956C341.269 30.9339 341.379 30.4332 341.379 29.8935C341.379 29.2898 341.248 28.7749 340.985 28.3487C340.722 27.9155 340.36 27.5817 339.898 27.3473C339.437 27.1129 338.908 26.9957 338.311 26.9957C337.707 26.9957 337.178 27.12 336.724 27.3686C336.269 27.6101 335.914 27.9616 335.658 28.4233C335.41 28.8849 335.286 29.446 335.286 30.1065H330.289C330.289 28.6222 330.623 27.3402 331.29 26.2607C331.958 25.1811 332.896 24.3501 334.103 23.7678C335.317 23.1783 336.727 22.8835 338.332 22.8835C339.987 22.8835 341.425 23.1605 342.647 23.7145C343.869 24.2685 344.813 25.0426 345.481 26.0369C346.156 27.0241 346.493 28.1712 346.493 29.478C346.493 30.3089 346.326 31.1328 345.992 31.9496C345.658 32.7663 345.058 33.6683 344.192 34.6555C343.332 35.6428 342.111 36.8253 340.527 38.2031L337.917 40.6108V40.7493H346.759V45H330.609Z" fill="white"/>
<circle cx="435.5" cy="35.5" r="17.5" fill="black"/>
<path d="M435.908 47.2983C434.246 47.2983 432.772 47.0142 431.487 46.446C430.208 45.8707 429.2 45.0788 428.461 44.0703C427.722 43.0618 427.346 41.9006 427.332 40.5866H432.637C432.658 41.0625 432.811 41.4851 433.095 41.8544C433.379 42.2166 433.766 42.5007 434.256 42.7067C434.746 42.9126 435.304 43.0156 435.929 43.0156C436.554 43.0156 437.104 42.9055 437.58 42.6854C438.063 42.4581 438.44 42.1491 438.71 41.7585C438.979 41.3608 439.111 40.9062 439.104 40.3949C439.111 39.8835 438.965 39.429 438.667 39.0312C438.369 38.6335 437.946 38.3246 437.399 38.1044C436.859 37.8842 436.22 37.7741 435.482 37.7741H433.362V34.0241H435.482C436.128 34.0241 436.696 33.9176 437.186 33.7045C437.683 33.4915 438.07 33.1932 438.347 32.8097C438.624 32.419 438.759 31.9716 438.752 31.4673C438.759 30.9773 438.642 30.5476 438.401 30.1783C438.166 29.8018 437.836 29.5107 437.41 29.3047C436.991 29.0987 436.504 28.9957 435.95 28.9957C435.368 28.9957 434.839 29.0987 434.363 29.3047C433.894 29.5107 433.521 29.8018 433.244 30.1783C432.967 30.5547 432.822 30.9915 432.808 31.4886H427.768C427.783 30.1889 428.145 29.0455 428.855 28.0582C429.565 27.0639 430.531 26.2862 431.753 25.7251C432.982 25.1641 434.381 24.8835 435.95 24.8835C437.513 24.8835 438.887 25.157 440.073 25.7038C441.259 26.2507 442.183 26.9964 442.843 27.9411C443.504 28.8786 443.834 29.9403 443.834 31.1264C443.841 32.3551 443.44 33.3672 442.63 34.1626C441.827 34.9581 440.794 35.4482 439.53 35.6328V35.8033C441.22 36.0021 442.495 36.549 443.354 37.4439C444.221 38.3388 444.651 39.4574 444.643 40.7997C444.643 42.0639 444.271 43.1861 443.525 44.1662C442.786 45.1392 441.756 45.9062 440.435 46.4673C439.121 47.0213 437.612 47.2983 435.908 47.2983Z" fill="white"/>
</svg>
